<svg width="18" height="18" viewBox="0 0 18 18" fill="none" xmlns="http://www.w3.org/2000/svg">
<rect width="18" height="18" rx="3" fill="#4296EA"/>
<path fill-rule="evenodd" clip-rule="evenodd" d="M4.42857 5.5H13.5714C13.6851 5.5 13.7941 5.54425 13.8745 5.62302C13.9548 5.70178 14 5.80861 14 5.92V12.08C14 12.1914 13.9548 12.2982 13.8745 12.377C13.7941 12.4558 13.6851 12.5 13.5714 12.5H4.42857C4.31491 12.5 4.2059 12.4558 4.12553 12.377C4.04515 12.2982 4 12.1914 4 12.08V5.92C4 5.80861 4.04515 5.70178 4.12553 5.62302C4.2059 5.54425 4.31491 5.5 4.42857 5.5V5.5ZM6.5 9C6.6407 9 6.78003 8.97284 6.91002 8.92007C7.04001 8.86731 7.15812 8.78996 7.25761 8.69246C7.35711 8.59496 7.43603 8.47921 7.48987 8.35182C7.54372 8.22443 7.57143 8.08789 7.57143 7.95C7.57143 7.81211 7.54372 7.67557 7.48987 7.54818C7.43603 7.42079 7.35711 7.30504 7.25761 7.20754C7.15812 7.11004 7.04001 7.03269 6.91002 6.97993C6.78003 6.92716 6.6407 6.9 6.5 6.9C6.21584 6.9 5.94332 7.01062 5.74239 7.20754C5.54145 7.40445 5.42857 7.67152 5.42857 7.95C5.42857 8.22848 5.54145 8.49555 5.74239 8.69246C5.94332 8.88938 6.21584 9 6.5 9V9ZM11.1429 8.3C10.9534 8.3 10.7717 8.37375 10.6378 8.50503C10.5038 8.6363 10.4286 8.81435 10.4286 9V11.1C10.4286 11.2857 10.5038 11.4637 10.6378 11.595C10.7717 11.7262 10.9534 11.8 11.1429 11.8H11.8571C12.0466 11.8 12.2283 11.7262 12.3622 11.595C12.4962 11.4637 12.5714 11.2857 12.5714 11.1V9C12.5714 8.81435 12.4962 8.6363 12.3622 8.50503C12.2283 8.37375 12.0466 8.3 11.8571 8.3H11.1429ZM9 8.3C9 8.7669 8.76214 9 8.28571 9V9.7H9V11.8H9.71429V8.3H9ZM11.1429 9H11.8571V11.1H11.1429V9Z" fill="white"/>
</svg>
