<svg width="16" height="16" viewBox="0 0 16 16" fill="none" xmlns="http://www.w3.org/2000/svg">
<rect width="16" height="16" rx="8" fill="#4296EA"/>
<path fill-rule="evenodd" clip-rule="evenodd" d="M3.42857 4.5H12.5714C12.6851 4.5 12.7941 4.54425 12.8745 4.62302C12.9548 4.70178 13 4.80861 13 4.92V11.08C13 11.1914 12.9548 11.2982 12.8745 11.377C12.7941 11.4558 12.6851 11.5 12.5714 11.5H3.42857C3.31491 11.5 3.2059 11.4558 3.12553 11.377C3.04515 11.2982 3 11.1914 3 11.08V4.92C3 4.80861 3.04515 4.70178 3.12553 4.62302C3.2059 4.54425 3.31491 4.5 3.42857 4.5V4.5ZM5.5 8C5.6407 8 5.78003 7.97284 5.91002 7.92007C6.04001 7.86731 6.15812 7.78996 6.25761 7.69246C6.35711 7.59496 6.43603 7.47921 6.48987 7.35182C6.54372 7.22443 6.57143 7.08789 6.57143 6.95C6.57143 6.81211 6.54372 6.67557 6.48987 6.54818C6.43603 6.42079 6.35711 6.30504 6.25761 6.20754C6.15812 6.11004 6.04001 6.03269 5.91002 5.97993C5.78003 5.92716 5.6407 5.9 5.5 5.9C5.21584 5.9 4.94332 6.01062 4.74239 6.20754C4.54145 6.40445 4.42857 6.67152 4.42857 6.95C4.42857 7.22848 4.54145 7.49555 4.74239 7.69246C4.94332 7.88938 5.21584 8 5.5 8V8ZM10.1429 7.3C9.95342 7.3 9.77174 7.37375 9.63778 7.50503C9.50383 7.6363 9.42857 7.81435 9.42857 8V10.1C9.42857 10.2857 9.50383 10.4637 9.63778 10.595C9.77174 10.7262 9.95342 10.8 10.1429 10.8H10.8571C11.0466 10.8 11.2283 10.7262 11.3622 10.595C11.4962 10.4637 11.5714 10.2857 11.5714 10.1V8C11.5714 7.81435 11.4962 7.6363 11.3622 7.50503C11.2283 7.37375 11.0466 7.3 10.8571 7.3H10.1429ZM8 7.3C8 7.7669 7.76214 8 7.28571 8V8.7H8V10.8H8.71429V7.3H8ZM10.1429 8H10.8571V10.1H10.1429V8Z" fill="white"/>
</svg>
