<svg width="16" height="16" viewBox="0 0 16 16" fill="none" xmlns="http://www.w3.org/2000/svg">
<rect width="16" height="16" rx="8" fill="#F29655"/>
<path d="M12.7945 4.10873C12.8845 3.99622 12.9025 3.8417 12.8395 3.71194C12.7765 3.58143 12.6452 3.49892 12.5012 3.49892H10.7295L11.3176 2.57558C11.4286 2.40081 11.3768 2.16903 11.2028 2.05802C11.0303 1.94851 10.797 1.99802 10.6853 2.17278L9.84067 3.49892H3.50026C3.35625 3.49892 3.22498 3.58143 3.16198 3.71119C3.09972 3.84095 3.11697 3.99547 3.20698 4.10798L7.62569 9.63154V13.2499H6.12553C5.91851 13.2499 5.75049 13.4179 5.75049 13.6249C5.75049 13.832 5.91851 14 6.12553 14H9.87592C10.0829 14 10.251 13.832 10.251 13.6249C10.251 13.4179 10.0829 13.2499 9.87592 13.2499H8.37577V9.63154L12.7945 4.10873ZM10.2525 4.24899H11.7211L11.1211 4.99907H9.77541L10.2525 4.24899ZM4.28109 4.24899H9.36362L8.88582 4.99907H4.88115L4.28109 4.24899ZM7.25065 6.87426C7.25065 6.2532 7.7547 5.74915 8.37577 5.74915C8.38627 5.74915 8.39602 5.75215 8.40652 5.75215L8.05923 6.29745C7.94822 6.47222 7.99923 6.70399 8.174 6.815C8.237 6.85551 8.30676 6.87426 8.37577 6.87426C8.50028 6.87426 8.62104 6.81275 8.6923 6.70099L9.11684 6.03417C9.35012 6.2397 9.50088 6.53823 9.50088 6.87426C9.50088 7.49532 8.99683 7.99937 8.37577 7.99937C7.7547 7.99937 7.25065 7.49532 7.25065 6.87426Z" fill="white"/>
</svg>
