<svg width="18" height="18" viewBox="0 0 18 18" fill="none" xmlns="http://www.w3.org/2000/svg">
<rect width="18" height="18" rx="3" fill="#F29655"/>
<path d="M13.7945 5.10873C13.8845 4.99622 13.9025 4.8417 13.8395 4.71194C13.7765 4.58143 13.6452 4.49892 13.5012 4.49892H11.7295L12.3176 3.57558C12.4286 3.40081 12.3768 3.16903 12.2028 3.05802C12.0303 2.94851 11.797 2.99802 11.6853 3.17278L10.8407 4.49892H4.50026C4.35625 4.49892 4.22498 4.58143 4.16198 4.71119C4.09972 4.84095 4.11697 4.99547 4.20698 5.10798L8.62569 10.6315V14.2499H7.12553C6.91851 14.2499 6.75049 14.4179 6.75049 14.6249C6.75049 14.832 6.91851 15 7.12553 15H10.8759C11.0829 15 11.251 14.832 11.251 14.6249C11.251 14.4179 11.0829 14.2499 10.8759 14.2499H9.37577V10.6315L13.7945 5.10873ZM11.2525 5.24899H12.7211L12.1211 5.99907H10.7754L11.2525 5.24899ZM5.28109 5.24899H10.3636L9.88582 5.99907H5.88115L5.28109 5.24899ZM8.25065 7.87426C8.25065 7.2532 8.7547 6.74915 9.37577 6.74915C9.38627 6.74915 9.39602 6.75215 9.40652 6.75215L9.05923 7.29745C8.94822 7.47222 8.99923 7.70399 9.174 7.815C9.237 7.85551 9.30676 7.87426 9.37577 7.87426C9.50028 7.87426 9.62104 7.81275 9.6923 7.70099L10.1168 7.03417C10.3501 7.2397 10.5009 7.53823 10.5009 7.87426C10.5009 8.49532 9.99683 8.99937 9.37577 8.99937C8.7547 8.99937 8.25065 8.49532 8.25065 7.87426Z" fill="white"/>
</svg>
