<svg width="20" height="20" viewBox="0 0 20 20" fill="none" xmlns="http://www.w3.org/2000/svg">
<rect width="20" height="20" rx="3" fill="white"/>
<path d="M2 17.0196C2 17.5611 2.38646 18 2.86319 18H17.1368C17.6135 18 18 17.5611 18 17.0196C18 16.8476 17.9601 16.6785 17.8844 16.5295L10.7475 2.49018C10.5934 2.18686 10.3084 2 10 2C9.69161 2 9.40664 2.18686 9.25246 2.49018L2.11565 16.5295C2.03988 16.6785 2 16.8476 2 17.0196Z" fill="white"/>
<path fill-rule="evenodd" clip-rule="evenodd" d="M9.25246 2.49018C9.40666 2.18685 9.69161 2 10 2C10.3084 2 10.5933 2.18685 10.7475 2.49018L17.8844 16.5295C17.9601 16.6785 18 16.8475 18 17.0196C18 17.5611 17.6135 18 17.1368 18H2.86319C2.38645 18 2 17.5611 2 17.0196C2 16.8475 2.03988 16.6785 2.11565 16.5295L9.25246 2.49018ZM10 2.04357C9.70531 2.04357 9.43303 2.22212 9.28568 2.51197L2.14887 16.5512C2.07647 16.6937 2.03836 16.8552 2.03836 17.0196C2.03836 17.537 2.40764 17.9564 2.86319 17.9564H17.1368C17.5924 17.9564 17.9616 17.537 17.9616 17.0196C17.9616 16.8552 17.9235 16.6937 17.8511 16.5512L10.7143 2.51197C10.567 2.22212 10.2947 2.04357 10 2.04357Z" fill="black"/>
<path d="M2.19141 17.0205C2.19141 17.4416 2.49199 17.783 2.86278 17.783H17.1364C17.5072 17.783 17.8078 17.4416 17.8078 17.0205C17.8078 16.8867 17.7768 16.7552 17.7178 16.6393L10.581 2.6C10.4611 2.36408 10.2394 2.21875 9.99959 2.21875C9.75974 2.21875 9.53809 2.36408 9.41816 2.6L2.28135 16.6393C2.22242 16.7552 2.19141 16.8867 2.19141 17.0205ZM3.79567 16.283C3.79567 16.2448 3.80454 16.2072 3.82138 16.1741L9.83347 4.34733C9.86773 4.27993 9.93105 4.2384 9.99959 4.2384C10.0681 4.2384 10.1314 4.27993 10.1657 4.34733L16.1778 16.1741C16.1947 16.2072 16.2035 16.2448 16.2035 16.283C16.2035 16.4034 16.1176 16.5009 16.0117 16.5009H3.98749C3.88155 16.5009 3.79567 16.4034 3.79567 16.283Z" fill="#FF0000"/>
<path d="M10.6813 7.68752C10.3589 7.68752 10.1641 7.96377 10.1641 8.32752C10.1641 8.88877 10.6043 9.67502 10.9367 9.67502C11.2691 9.67502 11.6389 9.29377 11.6389 8.77751C11.6389 8.34877 11.2559 7.6875 10.6813 7.6875V7.68752Z" fill="black"/>
<path d="M10.2657 15.5492C10.2657 15.7978 10.4431 15.9992 10.6619 15.9992C10.8808 15.9992 11.0581 15.7978 11.0581 15.5492V13.5484C11.0655 13.549 11.0728 13.5492 11.0802 13.5492C11.1992 13.5492 11.3101 13.481 11.3751 13.3678L13.0333 14.4551C12.3808 14.9523 12.0237 14.6868 11.1683 15.9992H15.5833L14.0406 12.9644C13.7121 13.3861 13.6506 13.7591 13.2517 14.2519L11.4222 13.0523L10.6985 9.9845C10.689 9.94426 10.6708 9.90734 10.6455 9.87712L9.93673 9.02712C9.89516 8.97739 9.83744 8.94922 9.77706 8.94922H8.38149C8.30284 8.94922 8.23018 8.99686 8.19086 9.07423L7.26203 10.9017C7.23113 10.9625 7.21484 11.0315 7.21484 11.1017C7.21484 11.3226 7.37252 11.5017 7.56704 11.5017C7.69288 11.5017 7.80914 11.4255 7.87206 11.3017L7.9601 11.1285L8.45954 11.456L8.30545 11.7591C8.28614 11.7971 8.27597 11.8403 8.27597 11.8842C8.27597 11.9735 8.31792 12.056 8.38604 12.1007L10.2657 13.3332L10.2657 15.5492ZM8.09215 10.8687L8.66124 9.74924H9.32718L8.59161 11.1962L8.09215 10.8687ZM9.66444 11.8362L10.1709 10.8399L10.5417 12.4114L9.66444 11.8362Z" fill="black"/>
<path d="M7.45541 15.3256C7.42064 15.394 7.40234 15.4716 7.40234 15.5506C7.40234 15.7992 7.57973 16.0006 7.79856 16.0006C7.94012 16.0006 8.07093 15.9149 8.14169 15.7756L9.2439 13.6006C9.26322 13.5626 9.27339 13.5195 9.27339 13.4756C9.27339 13.4654 9.27283 13.4552 9.27176 13.4451L9.21007 12.8745L8.32025 12.291L8.43912 13.3905L7.45541 15.3256Z" fill="black"/>
</svg>
