<svg width="16" height="16" viewBox="0 0 16 16" fill="none" xmlns="http://www.w3.org/2000/svg">
<g clip-path="url(#clip0)">
<path d="M0 15.0196C0 15.5611 0.386459 16 0.863189 16H15.1368C15.6135 16 16 15.5611 16 15.0196C16 14.8476 15.9601 14.6785 15.8844 14.5295L8.74754 0.490181C8.59336 0.186857 8.30839 0 8 0C7.69161 0 7.40664 0.186857 7.25246 0.490181L0.115648 14.5295C0.0398793 14.6785 0 14.8476 0 15.0196H0Z" fill="white"/>
<path fill-rule="evenodd" clip-rule="evenodd" d="M7.25246 0.490181C7.40666 0.186848 7.69161 0 8 0C8.30839 0 8.59334 0.186848 8.74754 0.490181L15.8844 14.5295C15.9601 14.6785 16 14.8475 16 15.0196C16 15.5611 15.6135 16 15.1368 16H0.863189C0.386454 16 0 15.5611 0 15.0196C0 14.8475 0.0398833 14.6785 0.115648 14.5295L7.25246 0.490181ZM8 0.0435716C7.70531 0.0435716 7.43303 0.222115 7.28568 0.511967L0.148872 14.5512C0.0764746 14.6937 0.038364 14.8552 0.038364 15.0196C0.038364 15.537 0.407642 15.9564 0.863189 15.9564H15.1368C15.5924 15.9564 15.9616 15.537 15.9616 15.0196C15.9616 14.8552 15.9235 14.6937 15.8511 14.5512L8.71432 0.511967C8.56697 0.222115 8.29469 0.0435716 8 0.0435716Z" fill="black"/>
<path d="M0.191818 15.0205C0.191818 15.4416 0.4924 15.783 0.863188 15.783H15.1368C15.5076 15.783 15.8082 15.4416 15.8082 15.0205C15.8082 14.8867 15.7772 14.7552 15.7182 14.6393L8.58142 0.600002C8.4615 0.364083 8.23985 0.21875 8 0.21875C7.76015 0.21875 7.5385 0.364083 7.41857 0.600002L0.281763 14.6393C0.222836 14.7552 0.191818 14.8867 0.191818 15.0205V15.0205ZM1.79608 14.283C1.79608 14.2448 1.80495 14.2072 1.82179 14.1741L7.83388 2.34733C7.86814 2.27993 7.93146 2.2384 8 2.2384C8.06854 2.2384 8.13184 2.27993 8.16611 2.34733L14.1782 14.1741C14.1951 14.2072 14.2039 14.2448 14.2039 14.283C14.2039 14.4034 14.118 14.5009 14.0121 14.5009H1.9879C1.88196 14.5009 1.79608 14.4034 1.79608 14.283V14.283Z" fill="#FF0000"/>
<path d="M8.68238 5.68752C8.35991 5.68752 8.1651 5.96377 8.1651 6.32752C8.1651 6.88877 8.60535 7.67502 8.93773 7.67502C9.27012 7.67502 9.63991 7.29377 9.63991 6.77751C9.63991 6.34877 9.2569 5.6875 8.68238 5.6875V5.68752Z" fill="black"/>
<path d="M8.26416 13.5492C8.26416 13.7978 8.44155 13.9992 8.66038 13.9992C8.87921 13.9992 9.0566 13.7978 9.0566 13.5492V11.5484C9.06393 11.549 9.07128 11.5492 9.07863 11.5492C9.19761 11.5492 9.30856 11.481 9.37357 11.3678L11.0318 12.4551C10.3793 12.9523 10.0222 12.6868 9.1668 13.9992H13.5818L12.0391 10.9644C11.7106 11.3861 11.6491 11.7591 11.2502 12.2519L9.42068 11.0523L8.69692 7.9845C8.68743 7.94426 8.66922 7.90734 8.64398 7.87712L7.93519 7.02712C7.89362 6.97739 7.8359 6.94922 7.77552 6.94922H6.37995C6.3013 6.94922 6.22864 6.99686 6.18932 7.07423L5.26049 8.90173C5.22959 8.96253 5.2133 9.03151 5.2133 9.10172C5.2133 9.32263 5.37098 9.50173 5.5655 9.50173C5.69134 9.50173 5.8076 9.42548 5.87052 9.30174L5.95856 9.12854L6.458 9.45605L6.30391 9.75915C6.2846 9.79715 6.27443 9.84026 6.27443 9.88416C6.27443 9.97348 6.31638 10.056 6.3845 10.1007L8.26418 11.3332L8.26416 13.5492ZM6.09061 8.86872L6.6597 7.74924H7.32564L6.59007 9.19623L6.09061 8.86872ZM7.6629 9.83619L8.16938 8.83986L8.54015 10.4114L7.6629 9.83619Z" fill="black"/>
<path d="M5.45566 13.3256C5.42089 13.394 5.40259 13.4716 5.40259 13.5506C5.40259 13.7992 5.57998 14.0006 5.79881 14.0006C5.94037 14.0006 6.07118 13.9149 6.14194 13.7756L7.24415 11.6006C7.26347 11.5626 7.27364 11.5195 7.27364 11.4756C7.27364 11.4654 7.27308 11.4552 7.27201 11.4451L7.21032 10.8745L6.3205 10.291L6.43937 11.3905L5.45566 13.3256Z" fill="black"/>
</g>
<defs>
<clipPath id="clip0">
<rect width="16" height="16" fill="white"/>
</clipPath>
</defs>
</svg>
