<svg width="913" height="913" viewBox="0 0 913 913" fill="none" xmlns="http://www.w3.org/2000/svg">
<rect width="913" height="913" rx="40" fill="#050708"/>
<path d="M505.571 416.5C548.504 423.5 581.404 439.6 604.271 464.8C627.138 489.533 638.571 520.333 638.571 557.2C638.571 585.667 631.104 612.033 616.171 636.3C601.238 660.1 578.371 679.233 547.571 693.7C517.238 708.167 479.904 715.4 435.571 715.4C401.038 715.4 366.971 710.967 333.371 702.1C300.238 692.767 272.004 679.7 248.671 662.9L292.771 576.1C311.438 590.1 332.904 601.067 357.171 609C381.904 616.467 407.104 620.2 432.771 620.2C461.238 620.2 483.638 614.833 499.971 604.1C516.304 592.9 524.471 577.267 524.471 557.2C524.471 517.067 493.904 497 432.771 497H380.971V422.1L481.771 308H273.171V217H616.171V290.5L505.571 416.5Z" fill="#FBB833"/>
</svg>
