<svg width="913" height="913" viewBox="0 0 913 913" fill="none" xmlns="http://www.w3.org/2000/svg">
<rect width="913" height="913" rx="40" fill="#050708"/>
<path d="M433.148 208.6C501.748 208.6 555.415 229.6 594.148 271.6C632.882 313.133 652.248 373.1 652.248 451.5C652.248 507.033 641.748 554.633 620.748 594.3C600.215 633.967 571.048 664.067 533.248 684.6C495.448 705.133 451.815 715.4 402.348 715.4C376.215 715.4 351.248 712.6 327.448 707C303.648 700.933 283.348 692.533 266.548 681.8L308.548 598.5C332.348 614.833 362.915 623 400.248 623C441.782 623 474.682 610.867 498.948 586.6C523.215 561.867 536.282 526.4 538.148 480.2C508.748 509.6 468.148 524.3 416.348 524.3C385.082 524.3 356.615 518 330.948 505.4C305.282 492.8 284.982 475.067 270.048 452.2C255.115 428.867 247.648 402.033 247.648 371.7C247.648 339.033 255.815 310.333 272.148 285.6C288.482 260.867 310.648 241.967 338.648 228.9C367.115 215.367 398.615 208.6 433.148 208.6ZM441.548 439.6C466.282 439.6 486.348 432.833 501.748 419.3C517.615 405.3 525.548 387.567 525.548 366.1C525.548 344.633 517.848 327.133 502.448 313.6C487.515 300.067 466.748 293.3 440.148 293.3C415.882 293.3 396.048 299.833 380.648 312.9C365.715 325.967 358.248 343.7 358.248 366.1C358.248 388.5 365.715 406.467 380.648 420C396.048 433.067 416.348 439.6 441.548 439.6Z" fill="#FBB833"/>
</svg>
