<svg width="913" height="913" viewBox="0 0 913 913" fill="none" xmlns="http://www.w3.org/2000/svg">
<rect width="913" height="913" rx="40" fill="#050708"/>
<path d="M588.045 449.4C612.312 461.533 630.745 477.4 643.345 497C656.412 516.6 662.945 539.233 662.945 564.9C662.945 595.233 654.312 621.833 637.045 644.7C619.779 667.1 595.512 684.6 564.245 697.2C532.979 709.333 496.812 715.4 455.745 715.4C414.679 715.4 378.512 709.333 347.245 697.2C316.445 684.6 292.412 667.1 275.145 644.7C258.345 621.833 249.945 595.233 249.945 564.9C249.945 539.233 256.245 516.6 268.845 497C281.912 477.4 300.345 461.533 324.145 449.4C305.945 438.2 291.945 424.2 282.145 407.4C272.345 390.133 267.445 370.533 267.445 348.6C267.445 320.133 275.379 295.4 291.245 274.4C307.112 253.4 329.279 237.3 357.745 226.1C386.212 214.433 418.879 208.6 455.745 208.6C493.079 208.6 525.979 214.433 554.445 226.1C583.379 237.3 605.779 253.4 621.645 274.4C637.512 295.4 645.445 320.133 645.445 348.6C645.445 370.533 640.545 390.133 630.745 407.4C620.945 424.2 606.712 438.2 588.045 449.4ZM455.745 291.9C432.879 291.9 414.445 297.5 400.445 308.7C386.912 319.433 380.145 334.367 380.145 353.5C380.145 372.167 386.912 386.867 400.445 397.6C413.979 408.333 432.412 413.7 455.745 413.7C479.079 413.7 497.745 408.333 511.745 397.6C525.745 386.867 532.745 372.167 532.745 353.5C532.745 334.367 525.745 319.433 511.745 308.7C497.745 297.5 479.079 291.9 455.745 291.9ZM455.745 632.1C484.212 632.1 506.612 625.8 522.945 613.2C539.745 600.133 548.145 582.867 548.145 561.4C548.145 539.933 539.745 522.9 522.945 510.3C506.612 497.7 484.212 491.4 455.745 491.4C427.745 491.4 405.579 497.7 389.245 510.3C372.912 522.9 364.745 539.933 364.745 561.4C364.745 583.333 372.912 600.6 389.245 613.2C405.579 625.8 427.745 632.1 455.745 632.1Z" fill="#FBB833"/>
</svg>
