<svg width="913" height="913" viewBox="0 0 913 913" fill="none" xmlns="http://www.w3.org/2000/svg">
<rect width="913" height="913" rx="40" fill="#050708"/>
<path d="M643.455 614.6V707H273.155V633.5L462.155 455C482.221 435.867 495.755 419.533 502.755 406C509.755 392 513.255 378.233 513.255 364.7C513.255 345.1 506.488 330.167 492.955 319.9C479.888 309.167 460.521 303.8 434.855 303.8C413.388 303.8 394.021 308 376.755 316.4C359.488 324.333 345.021 336.467 333.355 352.8L250.755 299.6C269.888 271.133 296.255 248.967 329.855 233.1C363.455 216.767 401.955 208.6 445.355 208.6C481.755 208.6 513.488 214.667 540.555 226.8C568.088 238.467 589.321 255.267 604.255 277.2C619.655 298.667 627.355 324.1 627.355 353.5C627.355 380.1 621.755 405.067 610.555 428.4C599.355 451.733 577.655 478.333 545.455 508.2L432.755 614.6H643.455Z" fill="#FBB833"/>
</svg>
