<svg width="913" height="913" viewBox="0 0 913 913" fill="none" xmlns="http://www.w3.org/2000/svg">
<rect width="913" height="913" rx="40" fill="#050708"/>
<path d="M443.646 401.1C512.712 401.1 563.579 414.867 596.246 442.4C629.379 469.933 645.946 506.8 645.946 553C645.946 582.867 638.479 610.167 623.546 634.9C608.612 659.167 585.746 678.767 554.946 693.7C524.612 708.167 487.046 715.4 442.246 715.4C407.712 715.4 373.646 710.967 340.046 702.1C306.912 692.767 278.679 679.7 255.346 662.9L300.146 576.1C318.812 590.1 340.279 601.067 364.546 609C388.812 616.467 413.779 620.2 439.446 620.2C467.912 620.2 490.312 614.6 506.646 603.4C522.979 592.2 531.146 576.567 531.146 556.5C531.146 535.5 522.512 519.633 505.246 508.9C488.446 498.167 459.046 492.8 417.046 492.8H291.746L316.946 217H615.846V308H411.446L403.746 401.1H443.646Z" fill="#FBB833"/>
</svg>
