<svg width="913" height="913" viewBox="0 0 913 913" fill="none" xmlns="http://www.w3.org/2000/svg">
<rect width="913" height="913" rx="40" fill="#050708"/>
<path d="M496.848 399.7C528.115 399.7 556.582 406 582.248 418.6C607.915 431.2 628.215 449.167 643.148 472.5C658.082 495.367 665.548 521.967 665.548 552.3C665.548 584.967 657.382 613.667 641.048 638.4C624.715 663.133 602.315 682.267 573.848 695.8C545.848 708.867 514.582 715.4 480.048 715.4C411.448 715.4 357.782 694.4 319.048 652.4C280.315 610.4 260.948 550.433 260.948 472.5C260.948 416.967 271.448 369.367 292.448 329.7C313.448 290.033 342.615 259.933 379.948 239.4C417.748 218.867 461.382 208.6 510.848 208.6C536.982 208.6 561.948 211.633 585.748 217.7C610.015 223.3 630.548 231.467 647.348 242.2L605.348 325.5C581.082 309.167 550.515 301 513.648 301C472.115 301 439.215 313.133 414.948 337.4C390.682 361.667 377.615 396.9 375.748 443.1C404.682 414.167 445.048 399.7 496.848 399.7ZM473.748 630.7C498.015 630.7 517.615 624.167 532.548 611.1C547.948 598.033 555.648 580.3 555.648 557.9C555.648 535.5 547.948 517.767 532.548 504.7C517.615 491.167 497.548 484.4 472.348 484.4C447.615 484.4 427.315 491.4 411.448 505.4C395.582 518.933 387.648 536.433 387.648 557.9C387.648 579.367 395.348 596.867 410.748 610.4C426.148 623.933 447.148 630.7 473.748 630.7Z" fill="#FBB833"/>
</svg>
