<svg width="913" height="913" viewBox="0 0 913 913" fill="none" xmlns="http://www.w3.org/2000/svg">
<rect width="913" height="913" rx="40" fill="#050708"/>
<path d="M298.191 217V707H184.791V308H86.7906V217H298.191ZM593.312 715.4C552.712 715.4 516.545 705.367 484.812 685.3C453.078 665.233 428.112 636.3 409.912 598.5C392.178 560.233 383.312 514.733 383.312 462C383.312 409.267 392.178 364 409.912 326.2C428.112 287.933 453.078 258.767 484.812 238.7C516.545 218.633 552.712 208.6 593.312 208.6C633.912 208.6 670.078 218.633 701.812 238.7C733.545 258.767 758.278 287.933 776.012 326.2C794.212 364 803.312 409.267 803.312 462C803.312 514.733 794.212 560.233 776.012 598.5C758.278 636.3 733.545 665.233 701.812 685.3C670.078 705.367 633.912 715.4 593.312 715.4ZM593.312 619.5C623.178 619.5 646.512 606.667 663.312 581C680.578 555.333 689.212 515.667 689.212 462C689.212 408.333 680.578 368.667 663.312 343C646.512 317.333 623.178 304.5 593.312 304.5C563.912 304.5 540.578 317.333 523.312 343C506.512 368.667 498.112 408.333 498.112 462C498.112 515.667 506.512 555.333 523.312 581C540.578 606.667 563.912 619.5 593.312 619.5Z" fill="#FBB833"/>
</svg>
