<svg width="913" height="913" viewBox="0 0 913 913" fill="none" xmlns="http://www.w3.org/2000/svg">
<rect width="913" height="913" rx="40" fill="#050708"/>
<path d="M329.294 217V707H215.894V308H117.894V217H329.294ZM780.515 614.6V707H410.215V633.5L599.215 455C619.282 435.867 632.815 419.533 639.815 406C646.815 392 650.315 378.233 650.315 364.7C650.315 345.1 643.549 330.167 630.015 319.9C616.949 309.167 597.582 303.8 571.915 303.8C550.449 303.8 531.082 308 513.815 316.4C496.549 324.333 482.082 336.467 470.415 352.8L387.815 299.6C406.949 271.133 433.315 248.967 466.915 233.1C500.515 216.767 539.015 208.6 582.415 208.6C618.815 208.6 650.549 214.667 677.615 226.8C705.149 238.467 726.382 255.267 741.315 277.2C756.715 298.667 764.415 324.1 764.415 353.5C764.415 380.1 758.815 405.067 747.615 428.4C736.415 451.733 714.715 478.333 682.515 508.2L569.815 614.6H780.515Z" fill="#FBB833"/>
</svg>
