<svg width="18" height="18" viewBox="0 0 18 18" fill="none" xmlns="http://www.w3.org/2000/svg">
<rect width="18" height="18" rx="3" fill="#559DE6"/>
<path fill-rule="evenodd" clip-rule="evenodd" d="M9.7241 13.2294L9.85867 14.5717C9.57324 14.8571 9.28696 15.0003 9.00153 15.0003C8.7161 15.0003 8.42981 14.8571 8.14438 14.5717L8.27896 13.2294C5.90467 13.6323 5.4161 11.7826 5.61238 10.7146C6.29638 10.7146 7.58124 10.7146 8.41953 11.8203L8.57296 10.286H9.4301L9.58353 11.8203C10.4218 10.7146 11.7067 10.7146 12.3907 10.7146C12.587 11.7826 12.0992 13.6323 9.72496 13.2294H9.7241ZM7.84181 5.53485C8.14438 4.75914 8.56096 4.11456 8.97581 3.85742C9.39581 4.11799 9.81581 4.77285 10.121 5.55885C10.5929 5.12104 11.0771 4.69659 11.573 4.28599C13.2872 7.99999 12.4215 9.85742 8.97667 9.85742C5.56524 9.85742 4.71581 7.99999 6.4301 4.28599C6.90496 4.68542 7.38838 5.10885 7.84181 5.53485Z" fill="white"/>
</svg>
