<svg width="16" height="16" viewBox="0 0 16 16" fill="none" xmlns="http://www.w3.org/2000/svg">
<rect width="16" height="16" rx="8" fill="#559DE6"/>
<path fill-rule="evenodd" clip-rule="evenodd" d="M8.7241 12.2294L8.85867 13.5717C8.57324 13.8571 8.28696 14.0003 8.00153 14.0003C7.7161 14.0003 7.42981 13.8571 7.14438 13.5717L7.27896 12.2294C4.90467 12.6323 4.4161 10.7826 4.61238 9.71456C5.29638 9.71456 6.58124 9.71456 7.41953 10.8203L7.57296 9.28599H8.4301L8.58353 10.8203C9.42181 9.71456 10.7067 9.71456 11.3907 9.71456C11.587 10.7826 11.0992 12.6323 8.72496 12.2294H8.7241ZM6.84181 4.53485C7.14438 3.75914 7.56096 3.11456 7.97581 2.85742C8.39581 3.11799 8.81581 3.77285 9.12096 4.55885C9.59293 4.12104 10.0771 3.69659 10.573 3.28599C12.2872 6.99999 11.4215 8.85742 7.97667 8.85742C4.56524 8.85742 3.71581 6.99999 5.4301 3.28599C5.90496 3.68542 6.38838 4.10885 6.84181 4.53485Z" fill="white"/>
</svg>
