<svg width="18" height="18" viewBox="0 0 18 18" fill="none" xmlns="http://www.w3.org/2000/svg">
<rect width="18" height="18" rx="3" fill="#F29655"/>
<path fill-rule="evenodd" clip-rule="evenodd" d="M13 8C12.4858 9 11.747 9.5 10.7831 9.5C9.81928 9.5 9.08048 9 8.56626 8L8.74747 3.3C8.75046 3.21935 8.78346 3.14304 8.83954 3.0871C8.89561 3.03116 8.9704 2.99994 9.04819 3H9.24578C9.27053 2.99997 9.29435 3.00981 9.31229 3.0275C9.33023 3.04519 9.34093 3.06935 9.34217 3.095L9.50602 6.5H10.3253L10.4892 3.095C10.4904 3.06935 10.5011 3.04519 10.519 3.0275C10.537 3.00981 10.5608 2.99997 10.5855 3H10.9807C11.0055 2.99997 11.0293 3.00981 11.0472 3.0275C11.0652 3.04519 11.0759 3.06935 11.0771 3.095L11.241 6.5H12.0602L12.2241 3.095C12.2253 3.06935 12.236 3.04519 12.254 3.0275C12.2719 3.00981 12.2957 2.99997 12.3205 3H12.5181C12.6795 3 12.812 3.1325 12.8188 3.3L13 8ZM11.3181 9.927L11.4434 14.4855C11.4452 14.5523 11.4342 14.6188 11.4109 14.6811C11.3875 14.7433 11.3524 14.8001 11.3076 14.8481C11.2628 14.8961 11.2091 14.9342 11.1498 14.9603C11.0905 14.9864 11.0268 14.9999 10.9624 15H10.6048C10.5403 15 10.4765 14.9866 10.4171 14.9606C10.3577 14.9346 10.3039 14.8964 10.259 14.8485C10.2141 14.8005 10.1789 14.7436 10.1555 14.6813C10.1321 14.619 10.121 14.5524 10.1229 14.4855L10.2482 9.927C10.4265 9.9755 10.6053 10 10.7836 10C10.9619 10 11.1402 9.9755 11.3186 9.927H11.3181ZM7.40964 3.5275V15H7.06361C6.93377 15 6.80525 14.9729 6.68578 14.9201C6.56631 14.8673 6.45835 14.7901 6.36838 14.6929C6.27841 14.5958 6.20828 14.4808 6.1622 14.3549C6.11612 14.2289 6.09505 14.0946 6.10024 13.96L6.25301 10C6.06024 9.48 5.64241 9.147 5 9C5 6.339 5.52289 4.4035 6.56916 3.194C6.63428 3.11876 6.71987 3.06578 6.81462 3.04205C6.90937 3.01832 7.00883 3.02496 7.09987 3.06108C7.1909 3.0972 7.26925 3.16112 7.32455 3.24439C7.37986 3.32766 7.40952 3.42637 7.40964 3.5275Z" fill="white"/>
</svg>
