<svg width="16" height="16" viewBox="0 0 16 16" fill="none" xmlns="http://www.w3.org/2000/svg">
<circle cx="8" cy="8" r="8" fill="#F29655"/>
<path fill-rule="evenodd" clip-rule="evenodd" d="M12 7C11.4858 8 10.747 8.5 9.78313 8.5C8.81928 8.5 8.08048 8 7.56626 7L7.74747 2.3C7.75046 2.21935 7.78346 2.14304 7.83954 2.0871C7.89561 2.03116 7.9704 1.99994 8.04819 2H8.24578C8.27053 1.99997 8.29435 2.00981 8.31229 2.0275C8.33023 2.04519 8.34093 2.06935 8.34217 2.095L8.50602 5.5H9.3253L9.48916 2.095C9.49039 2.06935 9.50109 2.04519 9.51904 2.0275C9.53698 2.00981 9.56079 1.99997 9.58554 2H9.98072C10.0055 1.99997 10.0293 2.00981 10.0472 2.0275C10.0652 2.04519 10.0759 2.06935 10.0771 2.095L10.241 5.5H11.0602L11.2241 2.095C11.2253 2.06935 11.236 2.04519 11.254 2.0275C11.2719 2.00981 11.2957 1.99997 11.3205 2H11.5181C11.6795 2 11.812 2.1325 11.8188 2.3L12 7ZM10.3181 8.927L10.4434 13.4855C10.4452 13.5523 10.4342 13.6188 10.4109 13.6811C10.3875 13.7433 10.3524 13.8001 10.3076 13.8481C10.2628 13.8961 10.2091 13.9342 10.1498 13.9603C10.0905 13.9864 10.0268 13.9999 9.96241 14H9.60482C9.54034 14 9.47651 13.9866 9.41711 13.9606C9.35771 13.9346 9.30395 13.8964 9.25901 13.8485C9.21407 13.8005 9.17887 13.7436 9.15549 13.6813C9.1321 13.619 9.12102 13.5524 9.12289 13.4855L9.24819 8.927C9.42651 8.9755 9.6053 9 9.78361 9C9.96193 9 10.1402 8.9755 10.3186 8.927H10.3181ZM6.40964 2.5275V14H6.06361C5.93377 14 5.80525 13.9729 5.68578 13.9201C5.56631 13.8673 5.45835 13.7901 5.36838 13.6929C5.27841 13.5958 5.20828 13.4808 5.1622 13.3549C5.11612 13.2289 5.09505 13.0946 5.10024 12.96L5.25301 9C5.06024 8.48 4.64241 8.147 4 8C4 5.339 4.52289 3.4035 5.56916 2.194C5.63428 2.11876 5.71987 2.06578 5.81462 2.04205C5.90937 2.01832 6.00883 2.02496 6.09987 2.06108C6.1909 2.0972 6.26925 2.16112 6.32455 2.24439C6.37986 2.32766 6.40952 2.42637 6.40964 2.5275Z" fill="white"/>
</svg>
