<svg width="16" height="16" viewBox="0 0 16 16" fill="none" xmlns="http://www.w3.org/2000/svg">
<rect width="16" height="16" rx="8" fill="#F29655"/>
<path d="M11.1906 7.49981C11.0805 7.38965 10.8884 7.38953 10.7778 7.49981C10.6988 7.57901 10.6748 7.69289 10.706 7.79309C10.4326 8.05217 10.1894 8.26109 9.94204 8.44901C9.84688 8.36057 9.74572 8.27861 9.63952 8.20385C9.6424 8.17049 9.64396 8.13749 9.64396 8.10485C9.64396 7.64933 9.37972 7.23881 8.97448 7.04633V6.65057C9.30364 6.55733 9.54232 6.25541 9.54232 5.90093C9.54232 5.54645 9.30364 5.24465 8.97448 5.15129V4.90505C9.226 4.84181 9.4126 4.61381 9.4126 4.34297C9.4126 4.07213 9.22588 3.84413 8.97448 3.78077V2.94509C8.97436 2.75465 8.81944 2.59961 8.62888 2.59961H7.36528C7.17484 2.59961 7.0198 2.75465 7.0198 2.94509V3.78101C6.76828 3.84425 6.58168 4.07237 6.58168 4.34321C6.58168 4.61405 6.7684 4.84205 7.0198 4.90529V5.15153C6.69064 5.24477 6.45196 5.54669 6.45196 5.90117C6.45196 6.25565 6.69064 6.55745 7.0198 6.65081V7.04657C6.61468 7.23905 6.35032 7.64945 6.35032 8.10509C6.35032 8.13773 6.35176 8.17073 6.35476 8.20409C6.24856 8.27885 6.14728 8.36093 6.05224 8.44925C5.8048 8.26133 5.56168 8.05241 5.28832 7.79333C5.31952 7.69313 5.29552 7.57913 5.2162 7.49993C5.10604 7.38977 4.91368 7.38989 4.80364 7.49993L4.312 7.99157C4.25692 8.04665 4.22656 8.11997 4.22656 8.19785C4.22656 8.27585 4.25692 8.34905 4.312 8.40413C4.38832 8.48057 4.5052 8.50781 4.60564 8.47637C4.8364 8.71949 5.11216 9.02825 5.37796 9.39749C5.21968 9.75857 5.1394 10.1432 5.1394 10.5422C5.1394 11.1694 5.34004 11.7654 5.71096 12.2576H5.7106C5.3956 12.2576 5.13952 12.5138 5.13952 12.8286C5.13952 13.1435 5.3956 13.3996 5.71048 13.3996H10.2836C10.5986 13.3996 10.8546 13.1434 10.8546 12.8285C10.8546 12.5136 10.5984 12.2574 10.2836 12.2574H10.2832C10.6541 11.7653 10.8548 11.1692 10.8548 10.542C10.8548 10.1432 10.7746 9.75857 10.6162 9.39737C10.8819 9.02813 11.1576 8.71949 11.3885 8.47625C11.4886 8.50757 11.6058 8.48045 11.6822 8.40413C11.7372 8.34905 11.7677 8.27573 11.7677 8.19773C11.7677 8.11985 11.7374 8.04653 11.6823 7.99145L11.1906 7.49981ZM7.3798 6.98705V6.67949H8.61436V6.98705H7.3798ZM7.3798 5.12273V4.92269H8.61436V5.12273H7.3798ZM8.61436 2.95961V3.76361H7.3798V2.95961H8.61436ZM6.94168 4.34321C6.94168 4.22213 7.0402 4.12361 7.16128 4.12361H7.1998H8.79436H8.83288C8.95396 4.12361 9.05248 4.22213 9.05248 4.34321C9.05248 4.46429 8.95396 4.56281 8.83288 4.56281H8.79436H7.1998H7.16128C7.04008 4.56269 6.94168 4.46429 6.94168 4.34321ZM6.81196 5.90105C6.81196 5.67953 6.98584 5.49629 7.20808 5.48273H8.7862C9.00844 5.49629 9.18232 5.67953 9.18232 5.90105C9.18232 6.12257 9.00844 6.30581 8.7862 6.31937H7.20808C6.98572 6.30581 6.81196 6.12257 6.81196 5.90105ZM7.23592 7.34705H8.75824C9.07312 7.46645 9.28384 7.76717 9.28384 8.10497C9.28384 8.10677 9.2836 8.10869 9.2836 8.11061H6.71068C6.71068 8.10881 6.71044 8.10677 6.71044 8.10497C6.71032 7.76705 6.92104 7.46645 7.23592 7.34705ZM4.76056 8.11757C4.74952 8.10617 4.73728 8.09645 4.72396 8.08841L4.90072 7.91177C4.90864 7.92497 4.91836 7.93733 4.92976 7.94837C5.25376 8.26181 5.53444 8.50673 5.821 8.72537L5.58208 9.06773C5.28988 8.67797 4.99468 8.35949 4.76056 8.11757ZM10.2837 12.6173C10.4001 12.6173 10.4948 12.712 10.4948 12.8284C10.4948 12.9448 10.4001 13.0396 10.2837 13.0396H5.71048C5.59408 13.0396 5.4994 12.9449 5.4994 12.8285C5.4994 12.7121 5.59408 12.6174 5.71048 12.6174H6.10576H9.88828H10.2837V12.6173ZM9.80896 12.2573H6.1852C5.74372 11.7916 5.4994 11.1862 5.4994 10.5419C5.4994 10.1656 5.58124 9.80429 5.74204 9.46745L6.20656 8.80193C6.32704 8.67797 6.46072 8.56709 6.604 8.47049H9.39004C9.53332 8.56709 9.66712 8.67797 9.78748 8.80193L10.252 9.46745C10.4128 9.80429 10.4946 10.1656 10.4946 10.5419C10.4948 11.1862 10.2504 11.7916 9.80896 12.2573ZM11.2336 8.11757C10.9996 8.35949 10.7043 8.67785 10.4121 9.06773L10.1732 8.72537C10.4596 8.50673 10.7404 8.26181 11.0644 7.94837C11.0758 7.93745 11.0855 7.92509 11.0934 7.91177L11.2702 8.08841C11.2569 8.09657 11.2446 8.10629 11.2336 8.11757Z" fill="white" stroke="white" stroke-width="0.1"/>
</svg>
