<svg width="18" height="18" viewBox="0 0 18 18" fill="none" xmlns="http://www.w3.org/2000/svg">
<rect width="18" height="18" rx="3" fill="#F29655"/>
<path d="M12.1906 8.49981C12.0805 8.38965 11.8884 8.38953 11.7778 8.49981C11.6988 8.57901 11.6748 8.69289 11.706 8.79309C11.4326 9.05217 11.1894 9.26109 10.942 9.44901C10.8469 9.36057 10.7457 9.27861 10.6395 9.20385C10.6424 9.17049 10.644 9.13749 10.644 9.10485C10.644 8.64933 10.3797 8.23881 9.97448 8.04633V7.65057C10.3036 7.55733 10.5423 7.25541 10.5423 6.90093C10.5423 6.54645 10.3036 6.24465 9.97448 6.15129V5.90505C10.226 5.84181 10.4126 5.61381 10.4126 5.34297C10.4126 5.07213 10.2259 4.84413 9.97448 4.78077V3.94509C9.97436 3.75465 9.81944 3.59961 9.62888 3.59961H8.36528C8.17484 3.59961 8.0198 3.75465 8.0198 3.94509V4.78101C7.76828 4.84425 7.58168 5.07237 7.58168 5.34321C7.58168 5.61405 7.7684 5.84205 8.0198 5.90529V6.15153C7.69064 6.24477 7.45196 6.54669 7.45196 6.90117C7.45196 7.25565 7.69064 7.55745 8.0198 7.65081V8.04657C7.61468 8.23905 7.35032 8.64945 7.35032 9.10509C7.35032 9.13773 7.35176 9.17073 7.35476 9.20409C7.24856 9.27885 7.14728 9.36093 7.05224 9.44925C6.8048 9.26133 6.56168 9.05241 6.28832 8.79333C6.31952 8.69313 6.29552 8.57913 6.2162 8.49993C6.10604 8.38977 5.91368 8.38989 5.80364 8.49993L5.312 8.99157C5.25692 9.04665 5.22656 9.11997 5.22656 9.19785C5.22656 9.27585 5.25692 9.34905 5.312 9.40413C5.38832 9.48057 5.5052 9.50781 5.60564 9.47637C5.8364 9.71949 6.11216 10.0282 6.37796 10.3975C6.21968 10.7586 6.1394 11.1432 6.1394 11.5422C6.1394 12.1694 6.34004 12.7654 6.71096 13.2576H6.7106C6.3956 13.2576 6.13952 13.5138 6.13952 13.8286C6.13952 14.1435 6.3956 14.3996 6.71048 14.3996H11.2836C11.5986 14.3996 11.8546 14.1434 11.8546 13.8285C11.8546 13.5136 11.5984 13.2574 11.2836 13.2574H11.2832C11.6541 12.7653 11.8548 12.1692 11.8548 11.542C11.8548 11.1432 11.7746 10.7586 11.6162 10.3974C11.8819 10.0281 12.1576 9.71949 12.3885 9.47625C12.4886 9.50757 12.6058 9.48045 12.6822 9.40413C12.7372 9.34905 12.7677 9.27573 12.7677 9.19773C12.7677 9.11985 12.7374 9.04653 12.6823 8.99145L12.1906 8.49981ZM8.3798 7.98705V7.67949H9.61436V7.98705H8.3798ZM8.3798 6.12273V5.92269H9.61436V6.12273H8.3798ZM9.61436 3.95961V4.76361H8.3798V3.95961H9.61436ZM7.94168 5.34321C7.94168 5.22213 8.0402 5.12361 8.16128 5.12361H8.1998H9.79436H9.83288C9.95396 5.12361 10.0525 5.22213 10.0525 5.34321C10.0525 5.46429 9.95396 5.56281 9.83288 5.56281H9.79436H8.1998H8.16128C8.04008 5.56269 7.94168 5.46429 7.94168 5.34321ZM7.81196 6.90105C7.81196 6.67953 7.98584 6.49629 8.20808 6.48273H9.7862C10.0084 6.49629 10.1823 6.67953 10.1823 6.90105C10.1823 7.12257 10.0084 7.30581 9.7862 7.31937H8.20808C7.98572 7.30581 7.81196 7.12257 7.81196 6.90105ZM8.23592 8.34705H9.75824C10.0731 8.46645 10.2838 8.76717 10.2838 9.10497C10.2838 9.10677 10.2836 9.10869 10.2836 9.11061H7.71068C7.71068 9.10881 7.71044 9.10677 7.71044 9.10497C7.71032 8.76705 7.92104 8.46645 8.23592 8.34705ZM5.76056 9.11757C5.74952 9.10617 5.73728 9.09645 5.72396 9.08841L5.90072 8.91177C5.90864 8.92497 5.91836 8.93733 5.92976 8.94837C6.25376 9.26181 6.53444 9.50673 6.821 9.72537L6.58208 10.0677C6.28988 9.67797 5.99468 9.35949 5.76056 9.11757ZM11.2837 13.6173C11.4001 13.6173 11.4948 13.712 11.4948 13.8284C11.4948 13.9448 11.4001 14.0396 11.2837 14.0396H6.71048C6.59408 14.0396 6.4994 13.9449 6.4994 13.8285C6.4994 13.7121 6.59408 13.6174 6.71048 13.6174H7.10576H10.8883H11.2837V13.6173ZM10.809 13.2573H7.1852C6.74372 12.7916 6.4994 12.1862 6.4994 11.5419C6.4994 11.1656 6.58124 10.8043 6.74204 10.4674L7.20656 9.80193C7.32704 9.67797 7.46072 9.56709 7.604 9.47049H10.39C10.5333 9.56709 10.6671 9.67797 10.7875 9.80193L11.252 10.4674C11.4128 10.8043 11.4946 11.1656 11.4946 11.5419C11.4948 12.1862 11.2504 12.7916 10.809 13.2573ZM12.2336 9.11757C11.9996 9.35949 11.7043 9.67785 11.4121 10.0677L11.1732 9.72537C11.4596 9.50673 11.7404 9.26181 12.0644 8.94837C12.0758 8.93745 12.0855 8.92509 12.0934 8.91177L12.2702 9.08841C12.2569 9.09657 12.2446 9.10629 12.2336 9.11757Z" fill="white" stroke="white" stroke-width="0.1"/>
</svg>
