<svg width="1070" height="1070" viewBox="0 0 1070 1070" fill="none" xmlns="http://www.w3.org/2000/svg">
<mask id="path-1-inside-1" fill="white">
<path fill-rule="evenodd" clip-rule="evenodd" d="M646.347 638C667.388 614.395 680 584.29 680 551.5C680 518.71 667.388 488.605 646.347 465H1028C1051.2 465 1070 483.804 1070 507V596C1070 619.196 1051.2 638 1028 638H646.347ZM412.653 638H42C18.804 638 0 619.196 0 596V507C0 483.804 18.804 465 42 465H412.653C391.612 488.605 379 518.71 379 551.5C379 584.29 391.612 614.395 412.653 638Z"/>
</mask>
<path fill-rule="evenodd" clip-rule="evenodd" d="M646.347 638C667.388 614.395 680 584.29 680 551.5C680 518.71 667.388 488.605 646.347 465H1028C1051.2 465 1070 483.804 1070 507V596C1070 619.196 1051.2 638 1028 638H646.347ZM412.653 638H42C18.804 638 0 619.196 0 596V507C0 483.804 18.804 465 42 465H412.653C391.612 488.605 379 518.71 379 551.5C379 584.29 391.612 614.395 412.653 638Z" fill="#FDFAF2"/>
<path d="M646.347 638L641.121 633.342L630.73 645H646.347V638ZM646.347 465V458H630.73L641.121 469.658L646.347 465ZM412.653 638V645H428.27L417.879 633.342L412.653 638ZM412.653 465L417.879 469.658L428.27 458H412.653V465ZM673 551.5C673 582.438 661.113 610.915 641.121 633.342L651.572 642.658C673.664 617.874 687 586.143 687 551.5H673ZM641.121 469.658C661.113 492.085 673 520.562 673 551.5H687C687 516.857 673.664 485.126 651.572 460.342L641.121 469.658ZM646.347 472H1028V458H646.347V472ZM1028 472C1047.33 472 1063 487.67 1063 507H1077C1077 479.938 1055.06 458 1028 458V472ZM1063 507V596H1077V507H1063ZM1063 596C1063 615.33 1047.33 631 1028 631V645C1055.06 645 1077 623.062 1077 596H1063ZM1028 631H646.347V645H1028V631ZM412.653 631H42V645H412.653V631ZM42 631C22.67 631 7 615.33 7 596H-7C-7 623.062 14.9381 645 42 645V631ZM7 596V507H-7V596H7ZM7 507C7 487.67 22.67 472 42 472V458C14.9381 458 -7 479.938 -7 507H7ZM42 472H412.653V458H42V472ZM386 551.5C386 520.562 397.887 492.085 417.879 469.658L407.428 460.342C385.336 485.126 372 516.857 372 551.5H386ZM417.879 633.342C397.887 610.915 386 582.438 386 551.5H372C372 586.143 385.336 617.874 407.428 642.658L417.879 633.342Z" fill="#CE0000" mask="url(#path-1-inside-1)"/>
<ellipse cx="529.5" cy="550.236" rx="150.5" ry="137.236" fill="white" fill-opacity="0.75"/>
<path d="M42.5947 550.934L46.1221 519.859H80.3877V529.979H56.0742L54.5625 543.123C57.446 541.583 60.5114 540.813 63.7588 540.813C69.5817 540.813 74.1449 542.619 77.4482 546.23C80.7516 549.842 82.4033 554.895 82.4033 561.39C82.4033 565.337 81.5635 568.878 79.8838 572.014C78.2321 575.121 75.8525 577.543 72.7451 579.278C69.6377 580.986 65.9704 581.84 61.7432 581.84C58.0479 581.84 54.6185 581.098 51.4551 579.614C48.2917 578.103 45.7861 575.989 43.9385 573.273C42.1188 570.558 41.153 567.465 41.041 563.993H53.0508C53.3027 566.541 54.1846 568.528 55.6963 569.956C57.236 571.356 59.2376 572.056 61.7012 572.056C64.4447 572.056 66.5583 571.076 68.042 569.116C69.5257 567.129 70.2676 564.329 70.2676 560.718C70.2676 557.246 69.4137 554.587 67.7061 552.739C65.9984 550.892 63.5768 549.968 60.4414 549.968C57.5579 549.968 55.2204 550.724 53.4287 552.235L52.2529 553.327L42.5947 550.934ZM139.765 566.681L151.648 535.564H166.85V581H154.714V553.117L143.838 581H135.691L125.025 553.579V581H112.89V535.564H127.965L139.765 566.681ZM204.811 535.564H216.946V581H204.811V552.949L189.609 581H177.432V535.564H189.609V563.573L204.811 535.564ZM265.615 581H253.438V563.531H238.362V581H226.227V535.564H238.362V553.789H253.438V535.564H265.615V581ZM291.986 563.825L300.385 535.564H313.402L295.136 588.055L294.128 590.448C291.412 596.383 286.933 599.351 280.69 599.351C278.927 599.351 277.135 599.085 275.315 598.553V589.356L277.163 589.398C279.459 589.398 281.166 589.049 282.286 588.349C283.434 587.649 284.33 586.487 284.974 584.863L286.401 581.126L270.486 535.564H283.546L291.986 563.825ZM355.898 545.307H341.327V581H329.149V545.307H314.83V535.564H355.898V545.307Z" fill="black"/>
<path d="M746.952 581H734.774V545.391H719.573V581H707.438V535.564H746.952V581ZM777.145 581.84C770.482 581.84 765.051 579.796 760.852 575.709C756.68 571.622 754.595 566.177 754.595 559.374V558.198C754.595 553.635 755.477 549.562 757.24 545.979C759.004 542.367 761.495 539.596 764.715 537.664C767.962 535.704 771.658 534.725 775.801 534.725C782.016 534.725 786.901 536.684 790.456 540.604C794.039 544.523 795.831 550.08 795.831 557.274V562.229H766.898C767.29 565.197 768.466 567.576 770.426 569.368C772.413 571.16 774.919 572.056 777.942 572.056C782.618 572.056 786.271 570.362 788.902 566.975L794.865 573.651C793.046 576.227 790.582 578.243 787.475 579.698C784.367 581.126 780.924 581.84 777.145 581.84ZM775.759 544.551C773.351 544.551 771.392 545.363 769.88 546.986C768.396 548.61 767.444 550.934 767.024 553.957H783.905V552.991C783.849 550.304 783.121 548.232 781.722 546.776C780.322 545.293 778.334 544.551 775.759 544.551ZM814.896 535.564V571.216H827.367V535.564H839.545V571.216H852.017V535.564H864.152V581H802.76V535.564H814.896ZM891.699 564.245H886.828V581H874.692V535.564H886.828V552.655H891.153L901.063 535.564H916.391L901.525 557.19L917.776 581H901.609L891.699 564.245ZM918.028 557.862C918.028 553.355 918.896 549.338 920.632 545.811C922.368 542.283 924.859 539.554 928.106 537.622C931.382 535.69 935.175 534.725 939.486 534.725C945.617 534.725 950.614 536.6 954.478 540.352C958.369 544.103 960.538 549.198 960.986 555.637L961.07 558.744C961.07 565.715 959.125 571.314 955.233 575.541C951.342 579.74 946.121 581.84 939.57 581.84C933.02 581.84 927.785 579.74 923.865 575.541C919.974 571.342 918.028 565.631 918.028 558.408V557.862ZM930.164 558.744C930.164 563.055 930.976 566.359 932.6 568.654C934.223 570.922 936.547 572.056 939.57 572.056C942.51 572.056 944.805 570.936 946.457 568.696C948.109 566.429 948.935 562.817 948.935 557.862C948.935 553.635 948.109 550.36 946.457 548.036C944.805 545.713 942.482 544.551 939.486 544.551C936.519 544.551 934.223 545.713 932.6 548.036C930.976 550.332 930.164 553.901 930.164 558.744ZM996.218 566.681L1008.1 535.564H1023.3V581H1011.17V553.117L1000.29 581H992.145L981.479 553.579V581H969.343V535.564H984.418L996.218 566.681Z" fill="black"/>
<path d="M535.719 465.217C540.234 465.071 544.02 463.324 547.079 459.974C550.138 456.624 551.594 452.691 551.448 448.176C551.303 443.66 549.628 439.801 546.424 436.597C543.22 433.393 539.36 431.864 534.845 432.009C530.33 432.155 526.543 433.903 523.484 437.253C520.426 440.603 518.896 444.535 518.896 449.05C518.896 453.565 520.571 457.425 523.921 460.629C527.271 463.833 531.204 465.362 535.719 465.217Z" fill="#010002"/>
<path d="M590.991 520.49L566.96 507.382L547.298 475.923C543.511 471.262 538.85 468.932 533.316 468.932C529.529 468.932 525.888 470.534 522.392 473.738L492.68 503.887C491.806 505.052 491.224 506.363 490.932 507.819L487 541.463V542.337C487 544.376 487.728 546.124 489.185 547.581C490.641 549.037 492.389 549.765 494.428 549.765C496.467 549.765 498.142 549.037 499.453 547.581C500.764 546.124 501.564 544.522 501.856 542.774L504.914 513.936L515.401 503.45L505.788 583.847L488.748 621.861C488.165 623.608 487.874 625.207 487.874 626.668C487.874 629.867 488.966 632.567 491.151 634.751C493.336 636.936 496.03 637.881 499.234 637.591C503.604 637.591 506.808 635.547 508.847 631.474L527.198 590.401C527.198 590.108 527.344 589.599 527.635 588.872C527.927 588.142 528.219 587.487 528.509 586.906C528.801 586.322 528.946 585.739 528.946 585.158L531.131 565.495L549.919 630.163C551.958 635.407 555.599 637.882 560.843 637.591C563.756 637.591 566.304 636.499 568.489 634.314C570.674 632.13 571.766 629.43 571.766 626.231C571.766 625.935 571.693 625.576 571.548 625.139C571.402 624.702 571.329 624.336 571.329 624.045L545.113 534.472L548.171 505.198L555.599 516.995C556.182 517.869 556.91 518.597 557.784 519.18L583.563 533.599C585.311 534.181 586.477 534.472 587.059 534.472C589.098 534.472 590.846 533.672 592.302 532.069C593.759 530.467 594.487 528.646 594.487 526.608C594.487 523.986 593.322 521.947 590.991 520.49Z" fill="#010002"/>
</svg>
