<svg width="18" height="18" viewBox="0 0 18 18" fill="none" xmlns="http://www.w3.org/2000/svg">
<rect width="18" height="18" rx="3" fill="#F27D72"/>
<path d="M9.48386 9.47182L7.57332 11.3879C7.47614 11.4845 7.39895 11.5994 7.34618 11.726C7.29341 11.8526 7.2661 11.9884 7.26582 12.1257C7.26554 12.2629 7.29229 12.3988 7.34455 12.5256C7.3968 12.6525 7.47352 12.7677 7.57031 12.8647C7.6671 12.9617 7.78204 13.0386 7.90855 13.091C8.03505 13.1433 8.17062 13.1701 8.30748 13.1698C8.44434 13.1695 8.57978 13.1421 8.70604 13.0891C8.8323 13.0362 8.94689 12.9587 9.04323 12.8613L10.9538 10.9456L9.48386 9.47182V9.47182ZM6.98553 10.7981L10.8066 6.96682C11.1574 6.61507 11.6332 6.41746 12.1294 6.41746C12.6255 6.41746 13.1013 6.61507 13.4521 6.96682C13.8029 7.31857 14 7.79564 14 8.29309C14 8.79054 13.8029 9.26762 13.4521 9.61937L9.63102 13.4506C9.28021 13.8024 8.8044 14 8.30828 14C7.81215 14 7.33634 13.8024 6.98553 13.4506C6.63472 13.0989 6.43763 12.6218 6.43763 12.1244C6.43763 11.6269 6.63472 11.1498 6.98553 10.7981V10.7981ZM6.28633 8.58486C5.67996 8.58486 5.09842 8.34333 4.66965 7.91342C4.24088 7.48351 4 6.90042 4 6.29243C4 5.68444 4.24088 5.10135 4.66965 4.67144C5.09842 4.24152 5.67996 4 6.28633 4C6.8927 4 7.47424 4.24152 7.90301 4.67144C8.33178 5.10135 8.57266 5.68444 8.57266 6.29243C8.57266 6.90042 8.33178 7.48351 7.90301 7.91342C7.47424 8.34333 6.8927 8.58486 6.28633 8.58486V8.58486ZM6.88244 5.22291L5.21965 6.89013C5.18875 6.92111 5.16425 6.95789 5.14752 6.99836C5.1308 7.03884 5.12219 7.08223 5.12219 7.12604C5.12219 7.16985 5.1308 7.21324 5.14752 7.25371C5.16425 7.29419 5.18875 7.33097 5.21965 7.36195C5.25055 7.39293 5.28723 7.41751 5.3276 7.43427C5.36797 7.45104 5.41124 7.45967 5.45494 7.45967C5.49863 7.45967 5.5419 7.45104 5.58227 7.43427C5.62264 7.41751 5.65932 7.39293 5.69022 7.36195L7.35301 5.69473C7.3839 5.66375 7.40841 5.62697 7.42513 5.58649C7.44186 5.54601 7.45046 5.50263 7.45046 5.45882C7.45046 5.41501 7.44186 5.37162 7.42513 5.33114C7.40841 5.29067 7.3839 5.25389 7.35301 5.22291C7.32211 5.19193 7.28543 5.16735 7.24506 5.15058C7.20469 5.13382 7.16142 5.12519 7.11772 5.12519C7.07403 5.12519 7.03076 5.13382 6.99039 5.15058C6.95002 5.16735 6.91334 5.19193 6.88244 5.22291V5.22291Z" fill="white"/>
</svg>
