<svg width="16" height="16" viewBox="0 0 16 16" fill="none" xmlns="http://www.w3.org/2000/svg">
<rect width="16" height="16" rx="8" fill="#F27D72"/>
<path d="M8.48386 8.47182L6.57332 10.3879C6.47614 10.4845 6.39895 10.5994 6.34618 10.726C6.29341 10.8526 6.2661 10.9884 6.26582 11.1257C6.26554 11.2629 6.29229 11.3988 6.34455 11.5256C6.3968 11.6525 6.47352 11.7677 6.57031 11.8647C6.6671 11.9617 6.78204 12.0386 6.90855 12.091C7.03505 12.1433 7.17062 12.1701 7.30748 12.1698C7.44434 12.1695 7.57978 12.1421 7.70604 12.0891C7.8323 12.0362 7.94689 11.9587 8.04323 11.8613L9.95377 9.94564L8.48386 8.47182V8.47182ZM5.98553 9.79809L9.80661 5.96682C10.1574 5.61507 10.6332 5.41746 11.1294 5.41746C11.6255 5.41746 12.1013 5.61507 12.4521 5.96682C12.8029 6.31857 13 6.79564 13 7.29309C13 7.79054 12.8029 8.26762 12.4521 8.61937L8.63102 12.4506C8.28021 12.8024 7.8044 13 7.30828 13C6.81215 13 6.33634 12.8024 5.98553 12.4506C5.63472 12.0989 5.43763 11.6218 5.43763 11.1244C5.43763 10.6269 5.63472 10.1498 5.98553 9.79809V9.79809ZM5.28633 7.58486C4.67996 7.58486 4.09842 7.34333 3.66965 6.91342C3.24088 6.48351 3 5.90042 3 5.29243C3 4.68444 3.24088 4.10135 3.66965 3.67144C4.09842 3.24152 4.67996 3 5.28633 3C5.8927 3 6.47424 3.24152 6.90301 3.67144C7.33178 4.10135 7.57266 4.68444 7.57266 5.29243C7.57266 5.90042 7.33178 6.48351 6.90301 6.91342C6.47424 7.34333 5.8927 7.58486 5.28633 7.58486V7.58486ZM5.88244 4.22291L4.21965 5.89013C4.18875 5.92111 4.16425 5.95789 4.14752 5.99836C4.1308 6.03884 4.12219 6.08223 4.12219 6.12604C4.12219 6.16985 4.1308 6.21324 4.14752 6.25371C4.16425 6.29419 4.18875 6.33097 4.21965 6.36195C4.25055 6.39293 4.28723 6.41751 4.3276 6.43427C4.36797 6.45104 4.41124 6.45967 4.45494 6.45967C4.49863 6.45967 4.5419 6.45104 4.58227 6.43427C4.62264 6.41751 4.65932 6.39293 4.69022 6.36195L6.35301 4.69473C6.3839 4.66375 6.40841 4.62697 6.42513 4.58649C6.44186 4.54601 6.45046 4.50263 6.45046 4.45882C6.45046 4.41501 6.44186 4.37162 6.42513 4.33114C6.40841 4.29067 6.3839 4.25389 6.35301 4.22291C6.32211 4.19193 6.28543 4.16735 6.24506 4.15058C6.20469 4.13382 6.16142 4.12519 6.11772 4.12519C6.07403 4.12519 6.03076 4.13382 5.99039 4.15058C5.95002 4.16735 5.91334 4.19193 5.88244 4.22291V4.22291Z" fill="white"/>
</svg>
