<svg width="2765" height="2754" viewBox="0 0 2765 2754" fill="none" xmlns="http://www.w3.org/2000/svg">
<path d="M1506.54 923.969L1648.33 847.033C1648.33 959.575 1569.8 1088.33 1500.82 1198.97L1383.19 1377L1436.28 1048.59L1506.54 923.969V923.969Z" fill="#E00000"/>
<path d="M1415.03 1080.06C1543.73 1080.06 1648.06 975.732 1648.06 847.032C1648.06 718.332 1543.73 614 1415.03 614C1286.33 614 1182 718.332 1182 847.032C1182 975.732 1286.33 1080.06 1415.03 1080.06Z" fill="#FF3333"/>
<path d="M1414.98 942.41C1467.65 942.41 1510.35 899.709 1510.35 847.035C1510.35 794.361 1467.65 751.66 1414.98 751.66C1362.3 751.66 1319.6 794.361 1319.6 847.035C1319.6 899.709 1362.3 942.41 1414.98 942.41Z" fill="white"/>
<rect y="1425" width="2750" height="563" rx="80" fill="#0E0E0E" fill-opacity="0.8"/>
<path fill-rule="evenodd" clip-rule="evenodd" d="M337.271 1697.38C342.506 1701.36 343.417 1708.66 339.287 1713.71C335.216 1718.63 327.848 1719.56 322.614 1715.92L281.394 1687.18C281.724 1685.32 282.054 1683.56 282.364 1681.62C283.023 1678.13 283.663 1674.56 284.303 1670.92L284.807 1668.16L285.136 1663.7L285.621 1658.08L286.009 1653.23L337.271 1697.36V1697.38ZM302.062 1771.44L329.205 1863.23C331.416 1870.63 326.918 1878.35 319.201 1880.48C311.834 1882.46 304.175 1878.6 301.558 1871.8L269.18 1786.24L214.602 1733.75C209.678 1729.02 207.758 1722.51 208.98 1715.72L220.613 1651.9L194.38 1659.36L171.308 1710.99C168.672 1716.92 161.556 1719.68 155.41 1717.2C149.4 1714.73 146.492 1708.16 148.779 1702.34L172.103 1644.02C173.228 1641.12 175.399 1638.89 178.075 1637.57L179.587 1636.85L237.907 1608.2C238.139 1608.08 238.391 1608.04 238.605 1607.94C242.056 1606.2 246.089 1605.42 250.238 1606.2C255.472 1607.17 259.932 1610.08 262.161 1614.44C264.372 1618.82 265.147 1626.85 265.147 1626.85C266.446 1634.02 266.504 1641.06 267.144 1648.13C267.609 1655.19 267.59 1662.17 267.435 1669.15C267.047 1683.07 266.078 1696.93 264.139 1710.64L263.111 1718.75L298.65 1765.41L299.968 1767.16C300.976 1768.48 301.713 1769.93 302.101 1771.39L302.062 1771.44ZM283.721 1561.08C283.721 1577.17 270.731 1590.16 254.639 1590.16C238.547 1590.16 225.556 1577.17 225.556 1561.08C225.556 1544.99 238.547 1532 254.639 1532C270.731 1532 283.721 1544.99 283.721 1561.08ZM222.416 1764.81C229.589 1771.13 236.957 1777.22 243.452 1782.15C240.699 1787.73 236.084 1796.88 236.084 1796.88L186.877 1874.3C182.689 1880.89 173.732 1882.94 166.907 1878.95C160.354 1875.11 158.105 1867.12 161.479 1860.67L202.543 1783.31C203.202 1777.14 203.745 1770.96 204.598 1764.85L206.731 1750.58L209.329 1753.01C213.4 1756.88 217.859 1760.84 222.396 1764.79L222.416 1764.81Z" fill="#CCCCCC"/>
<line x1="1157" y1="1425" x2="1157" y2="1988" stroke="#222222" stroke-width="30"/>
<path d="M411.094 1600.12H423.125C428.854 1600.12 433.099 1598.69 435.859 1595.83C438.62 1592.96 440 1589.16 440 1584.42C440 1579.84 438.62 1576.27 435.859 1573.72C433.151 1571.17 429.401 1569.89 424.609 1569.89C420.286 1569.89 416.667 1571.09 413.75 1573.48C410.833 1575.83 409.375 1578.9 409.375 1582.7H386.797C386.797 1576.77 388.385 1571.45 391.562 1566.77C394.792 1562.03 399.271 1558.33 405 1555.67C410.781 1553.02 417.135 1551.69 424.062 1551.69C436.094 1551.69 445.521 1554.58 452.344 1560.36C459.167 1566.09 462.578 1574.01 462.578 1584.11C462.578 1589.32 460.99 1594.11 457.812 1598.48C454.635 1602.86 450.469 1606.22 445.312 1608.56C451.719 1610.85 456.484 1614.29 459.609 1618.88C462.786 1623.46 464.375 1628.88 464.375 1635.12C464.375 1645.23 460.677 1653.33 453.281 1659.42C445.938 1665.52 436.198 1668.56 424.062 1668.56C412.708 1668.56 403.411 1665.57 396.172 1659.58C388.984 1653.59 385.391 1645.67 385.391 1635.83H407.969C407.969 1640.1 409.557 1643.59 412.734 1646.3C415.964 1649.01 419.922 1650.36 424.609 1650.36C429.974 1650.36 434.167 1648.95 437.188 1646.14C440.26 1643.28 441.797 1639.5 441.797 1634.81C441.797 1623.46 435.547 1617.78 423.047 1617.78H411.094V1600.12ZM572.266 1640.36L594.375 1582.47H622.656V1667H600.078V1615.12L579.844 1667H564.688L544.844 1615.98V1667H522.266V1582.47H550.312L572.266 1640.36ZM693.281 1582.47H715.859V1667H693.281V1614.81L665 1667H642.344V1582.47H665V1634.58L693.281 1582.47ZM806.406 1667H783.75V1634.5H755.703V1667H733.125V1582.47H755.703V1616.38H783.75V1582.47H806.406V1667ZM855.469 1635.05L871.094 1582.47H895.312L861.328 1680.12L859.453 1684.58C854.401 1695.62 846.068 1701.14 834.453 1701.14C831.172 1701.14 827.839 1700.65 824.453 1699.66V1682.55L827.891 1682.62C832.161 1682.62 835.339 1681.97 837.422 1680.67C839.557 1679.37 841.224 1677.21 842.422 1674.19L845.078 1667.23L815.469 1582.47H839.766L855.469 1635.05ZM974.375 1600.59H947.266V1667H924.609V1600.59H897.969V1582.47H974.375V1600.59ZM1009.92 1607.23H1026.09C1033.39 1607.23 1039.79 1608.46 1045.31 1610.91C1050.83 1613.35 1055.05 1616.87 1057.97 1621.45C1060.94 1625.98 1062.42 1631.27 1062.42 1637.31C1062.42 1646.22 1059.11 1653.41 1052.5 1658.88C1045.94 1664.29 1036.98 1667 1025.62 1667H987.266V1582.47H1009.92V1607.23ZM1098.36 1667H1075.78V1582.47H1098.36V1667ZM1009.92 1625.36V1648.95H1025.94C1030.42 1648.95 1033.85 1647.91 1036.25 1645.83C1038.65 1643.74 1039.84 1640.91 1039.84 1637.31C1039.84 1633.67 1038.67 1630.78 1036.33 1628.64C1033.98 1626.45 1030.52 1625.36 1025.94 1625.36H1009.92ZM523.516 1855H500.859V1788.75H472.578V1855H450V1770.47H523.516V1855ZM579.688 1856.56C567.292 1856.56 557.188 1852.76 549.375 1845.16C541.615 1837.55 537.734 1827.42 537.734 1814.77V1812.58C537.734 1804.09 539.375 1796.51 542.656 1789.84C545.938 1783.12 550.573 1777.97 556.562 1774.38C562.604 1770.73 569.479 1768.91 577.188 1768.91C588.75 1768.91 597.839 1772.55 604.453 1779.84C611.12 1787.14 614.453 1797.47 614.453 1810.86V1820.08H560.625C561.354 1825.6 563.542 1830.03 567.188 1833.36C570.885 1836.69 575.547 1838.36 581.172 1838.36C589.87 1838.36 596.667 1835.21 601.562 1828.91L612.656 1841.33C609.271 1846.12 604.688 1849.87 598.906 1852.58C593.125 1855.23 586.719 1856.56 579.688 1856.56ZM577.109 1787.19C572.63 1787.19 568.984 1788.7 566.172 1791.72C563.411 1794.74 561.641 1799.06 560.859 1804.69H592.266V1802.89C592.161 1797.89 590.807 1794.04 588.203 1791.33C585.599 1788.57 581.901 1787.19 577.109 1787.19ZM649.922 1770.47V1836.8H673.125V1770.47H695.781V1836.8H718.984V1770.47H741.562V1855H627.344V1770.47H649.922ZM792.812 1823.83H783.75V1855H761.172V1770.47H783.75V1802.27H791.797L810.234 1770.47H838.75L811.094 1810.7L841.328 1855H811.25L792.812 1823.83ZM841.797 1811.95C841.797 1803.57 843.411 1796.09 846.641 1789.53C849.87 1782.97 854.505 1777.89 860.547 1774.3C866.641 1770.7 873.698 1768.91 881.719 1768.91C893.125 1768.91 902.422 1772.4 909.609 1779.38C916.849 1786.35 920.885 1795.83 921.719 1807.81L921.875 1813.59C921.875 1826.56 918.255 1836.98 911.016 1844.84C903.776 1852.66 894.062 1856.56 881.875 1856.56C869.688 1856.56 859.948 1852.66 852.656 1844.84C845.417 1837.03 841.797 1826.41 841.797 1812.97V1811.95ZM864.375 1813.59C864.375 1821.61 865.885 1827.76 868.906 1832.03C871.927 1836.25 876.25 1838.36 881.875 1838.36C887.344 1838.36 891.615 1836.28 894.688 1832.11C897.76 1827.89 899.297 1821.17 899.297 1811.95C899.297 1804.09 897.76 1797.99 894.688 1793.67C891.615 1789.35 887.292 1787.19 881.719 1787.19C876.198 1787.19 871.927 1789.35 868.906 1793.67C865.885 1797.94 864.375 1804.58 864.375 1813.59ZM987.266 1828.36L1009.38 1770.47H1037.66V1855H1015.08V1803.12L994.844 1855H979.688L959.844 1803.98V1855H937.266V1770.47H965.312L987.266 1828.36Z" fill="#CCCCCC"/>
<path d="M1392.52 1667H1369V1572.23H1323.45V1667H1300.02V1553.25H1392.52V1667ZM1460.64 1667C1459.6 1664.97 1458.84 1662.44 1458.38 1659.42C1452.91 1665.52 1445.8 1668.56 1437.05 1668.56C1428.77 1668.56 1421.89 1666.17 1416.42 1661.38C1411.01 1656.58 1408.3 1650.54 1408.3 1643.25C1408.3 1634.29 1411.6 1627.42 1418.22 1622.62C1424.89 1617.83 1434.49 1615.41 1447.05 1615.36H1457.44V1610.52C1457.44 1606.61 1456.42 1603.48 1454.39 1601.14C1452.41 1598.8 1449.26 1597.62 1444.94 1597.62C1441.14 1597.62 1438.14 1598.54 1435.95 1600.36C1433.82 1602.18 1432.75 1604.68 1432.75 1607.86H1410.17C1410.17 1602.96 1411.68 1598.43 1414.7 1594.27C1417.72 1590.1 1421.99 1586.84 1427.52 1584.5C1433.04 1582.1 1439.23 1580.91 1446.11 1580.91C1456.53 1580.91 1464.78 1583.54 1470.88 1588.8C1477.02 1594.01 1480.09 1601.35 1480.09 1610.83V1647.47C1480.15 1655.49 1481.27 1661.56 1483.45 1665.67V1667H1460.64ZM1441.97 1651.3C1445.3 1651.3 1448.38 1650.57 1451.19 1649.11C1454 1647.6 1456.08 1645.59 1457.44 1643.09V1628.56H1449C1437.7 1628.56 1431.68 1632.47 1430.95 1640.28L1430.88 1641.61C1430.88 1644.42 1431.86 1646.74 1433.84 1648.56C1435.82 1650.39 1438.53 1651.3 1441.97 1651.3ZM1570.72 1667H1548.06V1634.5H1520.02V1667H1497.44V1582.47H1520.02V1616.38H1548.06V1582.47H1570.72V1667ZM1584.7 1623.95C1584.7 1615.57 1586.32 1608.09 1589.55 1601.53C1592.78 1594.97 1597.41 1589.89 1603.45 1586.3C1609.55 1582.7 1616.6 1580.91 1624.62 1580.91C1636.03 1580.91 1645.33 1584.4 1652.52 1591.38C1659.76 1598.35 1663.79 1607.83 1664.62 1619.81L1664.78 1625.59C1664.78 1638.56 1661.16 1648.98 1653.92 1656.84C1646.68 1664.66 1636.97 1668.56 1624.78 1668.56C1612.59 1668.56 1602.85 1664.66 1595.56 1656.84C1588.32 1649.03 1584.7 1638.41 1584.7 1624.97V1623.95ZM1607.28 1625.59C1607.28 1633.61 1608.79 1639.76 1611.81 1644.03C1614.83 1648.25 1619.16 1650.36 1624.78 1650.36C1630.25 1650.36 1634.52 1648.28 1637.59 1644.11C1640.67 1639.89 1642.2 1633.17 1642.2 1623.95C1642.2 1616.09 1640.67 1609.99 1637.59 1605.67C1634.52 1601.35 1630.2 1599.19 1624.62 1599.19C1619.1 1599.19 1614.83 1601.35 1611.81 1605.67C1608.79 1609.94 1607.28 1616.58 1607.28 1625.59ZM1754.78 1625.52C1754.78 1638.54 1751.81 1648.98 1745.88 1656.84C1739.99 1664.66 1732.02 1668.56 1721.97 1668.56C1713.43 1668.56 1706.53 1665.59 1701.27 1659.66V1699.5H1678.69V1582.47H1699.62L1700.41 1590.75C1705.88 1584.19 1713.01 1580.91 1721.81 1580.91C1732.23 1580.91 1740.33 1584.76 1746.11 1592.47C1751.89 1600.18 1754.78 1610.8 1754.78 1624.34V1625.52ZM1732.2 1623.88C1732.2 1616.01 1730.8 1609.94 1727.98 1605.67C1725.22 1601.4 1721.19 1599.27 1715.88 1599.27C1708.79 1599.27 1703.92 1601.97 1701.27 1607.39V1642C1704.03 1647.57 1708.95 1650.36 1716.03 1650.36C1726.81 1650.36 1732.2 1641.53 1732.2 1623.88ZM1817.83 1667C1816.79 1664.97 1816.03 1662.44 1815.56 1659.42C1810.09 1665.52 1802.98 1668.56 1794.23 1668.56C1785.95 1668.56 1779.08 1666.17 1773.61 1661.38C1768.19 1656.58 1765.48 1650.54 1765.48 1643.25C1765.48 1634.29 1768.79 1627.42 1775.41 1622.62C1782.07 1617.83 1791.68 1615.41 1804.23 1615.36H1814.62V1610.52C1814.62 1606.61 1813.61 1603.48 1811.58 1601.14C1809.6 1598.8 1806.45 1597.62 1802.12 1597.62C1798.32 1597.62 1795.33 1598.54 1793.14 1600.36C1791.01 1602.18 1789.94 1604.68 1789.94 1607.86H1767.36C1767.36 1602.96 1768.87 1598.43 1771.89 1594.27C1774.91 1590.1 1779.18 1586.84 1784.7 1584.5C1790.22 1582.1 1796.42 1580.91 1803.3 1580.91C1813.71 1580.91 1821.97 1583.54 1828.06 1588.8C1834.21 1594.01 1837.28 1601.35 1837.28 1610.83V1647.47C1837.33 1655.49 1838.45 1661.56 1840.64 1665.67V1667H1817.83ZM1799.16 1651.3C1802.49 1651.3 1805.56 1650.57 1808.38 1649.11C1811.19 1647.6 1813.27 1645.59 1814.62 1643.09V1628.56H1806.19C1794.89 1628.56 1788.87 1632.47 1788.14 1640.28L1788.06 1641.61C1788.06 1644.42 1789.05 1646.74 1791.03 1648.56C1793.01 1650.39 1795.72 1651.3 1799.16 1651.3ZM1906.11 1640.36L1928.22 1582.47H1956.5V1667H1933.92V1615.12L1913.69 1667H1898.53L1878.69 1615.98V1667H1856.11V1582.47H1884.16L1906.11 1640.36ZM2025.17 1667C2024.13 1664.97 2023.38 1662.44 2022.91 1659.42C2017.44 1665.52 2010.33 1668.56 2001.58 1668.56C1993.3 1668.56 1986.42 1666.17 1980.95 1661.38C1975.54 1656.58 1972.83 1650.54 1972.83 1643.25C1972.83 1634.29 1976.14 1627.42 1982.75 1622.62C1989.42 1617.83 1999.03 1615.41 2011.58 1615.36H2021.97V1610.52C2021.97 1606.61 2020.95 1603.48 2018.92 1601.14C2016.94 1598.8 2013.79 1597.62 2009.47 1597.62C2005.67 1597.62 2002.67 1598.54 2000.48 1600.36C1998.35 1602.18 1997.28 1604.68 1997.28 1607.86H1974.7C1974.7 1602.96 1976.21 1598.43 1979.23 1594.27C1982.26 1590.1 1986.53 1586.84 1992.05 1584.5C1997.57 1582.1 2003.77 1580.91 2010.64 1580.91C2021.06 1580.91 2029.31 1583.54 2035.41 1588.8C2041.55 1594.01 2044.62 1601.35 2044.62 1610.83V1647.47C2044.68 1655.49 2045.8 1661.56 2047.98 1665.67V1667H2025.17ZM2006.5 1651.3C2009.83 1651.3 2012.91 1650.57 2015.72 1649.11C2018.53 1647.6 2020.61 1645.59 2021.97 1643.09V1628.56H2013.53C2002.23 1628.56 1996.21 1632.47 1995.48 1640.28L1995.41 1641.61C1995.41 1644.42 1996.4 1646.74 1998.38 1648.56C2000.35 1650.39 2003.06 1651.3 2006.5 1651.3ZM1467.36 1823.05L1482.98 1770.47H1507.2L1473.22 1868.12L1471.34 1872.58C1466.29 1883.62 1457.96 1889.14 1446.34 1889.14C1443.06 1889.14 1439.73 1888.65 1436.34 1887.66V1870.55L1439.78 1870.62C1444.05 1870.62 1447.23 1869.97 1449.31 1868.67C1451.45 1867.37 1453.11 1865.21 1454.31 1862.19L1456.97 1855.23L1427.36 1770.47H1451.66L1467.36 1823.05ZM1586.34 1770.47V1855H1563.77V1788.75H1543.84L1542.44 1814.84C1541.55 1828.75 1538.82 1838.88 1534.23 1845.23C1529.65 1851.59 1522.83 1854.84 1513.77 1855H1506.11L1505.88 1836.64L1508.69 1836.41C1512.75 1836.09 1515.72 1833.7 1517.59 1829.22C1519.47 1824.74 1520.64 1817.11 1521.11 1806.33L1522.67 1770.47H1586.34ZM1654.7 1770.47H1677.28V1855H1654.7V1802.81L1626.42 1855H1603.77V1770.47H1626.42V1822.58L1654.7 1770.47ZM1694.55 1770.47H1717.12V1836.8H1745.41V1770.47H1768.06V1836.95H1780.72L1779.16 1880.08H1758.14V1855H1694.55V1770.47ZM1816.19 1795.23H1832.36C1839.65 1795.23 1846.06 1796.46 1851.58 1798.91C1857.1 1801.35 1861.32 1804.87 1864.23 1809.45C1867.2 1813.98 1868.69 1819.27 1868.69 1825.31C1868.69 1834.22 1865.38 1841.41 1858.77 1846.88C1852.2 1852.29 1843.24 1855 1831.89 1855H1793.53V1770.47H1816.19V1795.23ZM1904.62 1855H1882.05V1770.47H1904.62V1855ZM1816.19 1813.36V1836.95H1832.2C1836.68 1836.95 1840.12 1835.91 1842.52 1833.83C1844.91 1831.74 1846.11 1828.91 1846.11 1825.31C1846.11 1821.67 1844.94 1818.78 1842.59 1816.64C1840.25 1814.45 1836.79 1813.36 1832.2 1813.36H1816.19Z" fill="white"/>
<path d="M2427.06 1566.97C2439.7 1561.36 2454.04 1558.24 2468.2 1558.24C2476.39 1558.24 2484.23 1559.22 2491.62 1561.09C2494.56 1561.81 2497.41 1559.31 2496.96 1556.28L2495.89 1547.74C2495 1533.49 2478.71 1522 2459.21 1522C2439.17 1522 2420.02 1534.02 2420.02 1548.89L2420.91 1563.14C2421.18 1566.26 2424.3 1568.22 2427.06 1566.97Z" fill="white"/>
<path d="M2593.94 1811.94L2593.49 1809.36C2593.49 1809.18 2593.4 1809.01 2593.4 1808.83L2576.93 1725.12C2574.79 1705.8 2560.72 1688.97 2540.24 1678.55L2532.4 1617.73C2532.4 1591.9 2503.2 1570.8 2468.2 1570.8C2433.2 1570.8 2399.9 1591.73 2399.9 1617.64C2399.9 1618.89 2399.99 1620.22 2400.17 1621.47L2400.61 1628.06C2393.67 1625.56 2385.74 1624.14 2377.37 1624.14C2368.91 1624.14 2360.98 1625.56 2353.95 1628.15L2354.39 1621.47C2354.57 1620.22 2354.66 1618.97 2354.66 1617.64C2354.66 1591.81 2321.27 1570.8 2286.36 1570.8C2251.36 1570.8 2222.16 1591.9 2222.16 1617.73L2214.32 1678.55C2193.84 1688.88 2179.77 1705.8 2177.63 1725.12L2161.16 1808.83C2161.16 1809.01 2161.07 1809.18 2161.07 1809.36L2160.62 1811.94C2160.27 1814.62 2160 1817.29 2160 1820.05C2160 1859.76 2201.59 1892 2252.79 1892C2303.99 1892 2345.58 1859.76 2345.58 1820.05V1787.1C2354.75 1791.37 2365.7 1793.78 2377.37 1793.78C2389.03 1793.78 2399.9 1791.37 2409.07 1787.19V1820.05C2409.07 1859.76 2450.66 1892 2501.86 1892C2552.97 1892 2594.65 1859.76 2594.65 1820.05C2594.56 1817.29 2594.29 1814.62 2593.94 1811.94ZM2252.79 1866.09C2216.55 1866.09 2185.91 1844.98 2185.91 1820.05C2185.91 1795.03 2216.55 1774.01 2252.79 1774.01C2289.03 1774.01 2319.67 1795.11 2319.67 1820.05C2319.67 1844.98 2289.03 1866.09 2252.79 1866.09ZM2377.37 1770.98C2362.14 1770.98 2349.76 1762.34 2349.76 1751.75C2349.76 1741.15 2362.14 1732.51 2377.37 1732.51C2392.6 1732.51 2404.97 1741.15 2404.97 1751.75C2404.97 1762.34 2392.6 1770.98 2377.37 1770.98ZM2501.77 1866.09C2465.53 1866.09 2434.9 1844.98 2434.9 1820.05C2434.9 1795.03 2465.53 1774.01 2501.77 1774.01C2538.01 1774.01 2568.65 1795.11 2568.65 1820.05C2568.65 1844.98 2538.01 1866.09 2501.77 1866.09Z" fill="white"/>
<path d="M2262.85 1561.09C2270.24 1559.22 2278.17 1558.24 2286.27 1558.24C2300.43 1558.24 2314.85 1561.36 2327.41 1566.97C2330.17 1568.22 2333.29 1566.26 2333.47 1563.23L2334.36 1548.98C2334.36 1534.11 2315.21 1522.09 2295.17 1522.09C2275.67 1522.09 2259.47 1533.58 2258.49 1547.82L2257.42 1556.37C2257.06 1559.31 2259.82 1561.89 2262.85 1561.09Z" fill="white"/>
<path fill-rule="evenodd" clip-rule="evenodd" d="M1142 1982.96H2670C2722.47 1982.96 2765 1940.43 2765 1887.96V1525.04C2765 1472.57 2722.47 1430.04 2670 1430.04H1142V1460.04H2670C2705.9 1460.04 2735 1489.14 2735 1525.04V1887.96C2735 1923.86 2705.9 1952.96 2670 1952.96H1142V1982.96Z" fill="#222222"/>
</svg>
