<svg width="16" height="16" viewBox="0 0 16 16" fill="none" xmlns="http://www.w3.org/2000/svg">
<rect width="16" height="16" rx="8" fill="#559DE6"/>
<path fill-rule="evenodd" clip-rule="evenodd" d="M12.847 8.1735L11.906 12.3135C11.8598 12.5166 11.7514 12.7001 11.5959 12.8386C11.4404 12.9771 11.2455 13.0636 11.0385 13.086C9.01872 13.3044 6.98128 13.3044 4.9615 13.086C4.75447 13.0636 4.5596 12.9771 4.40409 12.8386C4.24857 12.7001 4.14017 12.5166 4.094 12.3135L3.153 8.1735C4.7685 8.391 6.385 8.5 8 8.5C9.6155 8.5 11.2315 8.391 12.847 8.1735V8.1735ZM5.25 6H3.9L5.8545 2.743C5.89887 2.66895 5.96166 2.60765 6.03675 2.56507C6.11184 2.52249 6.19668 2.50007 6.283 2.5H6.5955C6.63813 2.5 6.68006 2.5109 6.71729 2.53167C6.75452 2.55244 6.78582 2.58239 6.80821 2.61866C6.83061 2.65494 6.84336 2.69634 6.84525 2.73893C6.84713 2.78152 6.8381 2.82389 6.819 2.862L5.25 6ZM12.1005 6H10.7505L9.1815 2.862C9.1624 2.82389 9.15337 2.78152 9.15525 2.73893C9.15714 2.69634 9.16989 2.65494 9.19229 2.61866C9.21468 2.58239 9.24598 2.55244 9.28321 2.53167C9.32044 2.5109 9.36237 2.5 9.405 2.5H9.7175C9.80382 2.50007 9.88866 2.52249 9.96375 2.56507C10.0388 2.60765 10.1016 2.66895 10.146 2.743L12.101 6H12.1005ZM5.622 9.5C5.60717 9.5 5.59252 9.50329 5.57912 9.50965C5.56573 9.516 5.55391 9.52526 5.54453 9.53675C5.53515 9.54823 5.52844 9.56166 5.52489 9.57606C5.52134 9.59046 5.52103 9.60547 5.524 9.62L5.984 11.92C5.98861 11.9426 6.00088 11.9629 6.01874 11.9775C6.0366 11.992 6.05895 12 6.082 12H6.6395C6.65348 12 6.6673 11.9971 6.68007 11.9914C6.69284 11.9857 6.70429 11.9774 6.71366 11.9671C6.72304 11.9567 6.73014 11.9445 6.7345 11.9312C6.73886 11.9179 6.7404 11.9039 6.739 11.89L6.509 9.59C6.50652 9.56533 6.49497 9.54247 6.47658 9.52584C6.4582 9.50921 6.43429 9.5 6.4095 9.5H5.622V9.5ZM7.604 9.5C7.59052 9.49999 7.57719 9.5027 7.56478 9.50798C7.55238 9.51325 7.54118 9.52098 7.53184 9.53069C7.5225 9.5404 7.51522 9.5519 7.51043 9.5645C7.50565 9.5771 7.50346 9.59054 7.504 9.604L7.596 11.904C7.59703 11.9298 7.60802 11.9542 7.62667 11.9721C7.64531 11.99 7.67016 12 7.696 12H8.304C8.32984 12 8.35469 11.99 8.37333 11.9721C8.39198 11.9542 8.40297 11.9298 8.404 11.904L8.496 9.604C8.49654 9.59054 8.49435 9.5771 8.48957 9.5645C8.48478 9.5519 8.4775 9.5404 8.46816 9.53069C8.45882 9.52098 8.44762 9.51325 8.43522 9.50798C8.42281 9.5027 8.40948 9.49999 8.396 9.5H7.604V9.5ZM9.5905 9.5C9.56571 9.5 9.5418 9.50921 9.52342 9.52584C9.50503 9.54247 9.49348 9.56533 9.491 9.59L9.261 11.89C9.2596 11.9039 9.26114 11.9179 9.2655 11.9312C9.26986 11.9445 9.27696 11.9567 9.28634 11.9671C9.29571 11.9774 9.30716 11.9857 9.31993 11.9914C9.3327 11.9971 9.34652 12 9.3605 12H9.918C9.94105 12 9.9634 11.992 9.98126 11.9775C9.99912 11.9629 10.0114 11.9426 10.016 11.92L10.476 9.62C10.479 9.60547 10.4787 9.59046 10.4751 9.57606C10.4716 9.56166 10.4649 9.54823 10.4555 9.53675C10.4461 9.52526 10.4343 9.516 10.4209 9.50965C10.4075 9.50329 10.3928 9.5 10.378 9.5H9.5905ZM3 6.5H13C13.1326 6.5 13.2598 6.55268 13.3536 6.64645C13.4473 6.74021 13.5 6.86739 13.5 7V7.08C13.5 7.19821 13.4581 7.31259 13.3818 7.40284C13.3054 7.49309 13.1996 7.55338 13.083 7.573C11.3885 7.858 9.6945 8 8 8C6.3055 8 4.6115 7.8575 2.917 7.573C2.80043 7.55338 2.69459 7.49309 2.61825 7.40284C2.54191 7.31259 2.50001 7.19821 2.5 7.08V7C2.5 6.86739 2.55268 6.74021 2.64645 6.64645C2.74021 6.55268 2.86739 6.5 3 6.5V6.5Z" fill="white"/>
</svg>
