<svg width="19" height="19" viewBox="0 0 19 19" fill="none" xmlns="http://www.w3.org/2000/svg">
<rect width="19" height="19" rx="3" fill="#559DE6"/>
<path fill-rule="evenodd" clip-rule="evenodd" d="M14.347 9.6735L13.406 13.8135C13.3598 14.0166 13.2514 14.2001 13.0959 14.3386C12.9404 14.4771 12.7455 14.5636 12.5385 14.586C10.5187 14.8044 8.48128 14.8044 6.4615 14.586C6.25447 14.5636 6.0596 14.4771 5.90409 14.3386C5.74857 14.2001 5.64017 14.0166 5.594 13.8135L4.653 9.6735C6.2685 9.891 7.885 10 9.5 10C11.1155 10 12.7315 9.891 14.347 9.6735V9.6735ZM6.75 7.5H5.4L7.3545 4.243C7.39887 4.16895 7.46166 4.10765 7.53675 4.06507C7.61184 4.02249 7.69668 4.00007 7.783 4H8.0955C8.13813 4 8.18006 4.0109 8.21729 4.03167C8.25452 4.05244 8.28582 4.08239 8.30821 4.11866C8.33061 4.15494 8.34336 4.19634 8.34525 4.23893C8.34713 4.28152 8.3381 4.32389 8.319 4.362L6.75 7.5ZM13.6005 7.5H12.2505L10.6815 4.362C10.6624 4.32389 10.6534 4.28152 10.6553 4.23893C10.6571 4.19634 10.6699 4.15494 10.6923 4.11866C10.7147 4.08239 10.746 4.05244 10.7832 4.03167C10.8204 4.0109 10.8624 4 10.905 4H11.2175C11.3038 4.00007 11.3887 4.02249 11.4638 4.06507C11.5388 4.10765 11.6016 4.16895 11.646 4.243L13.601 7.5H13.6005ZM7.122 11C7.10717 11 7.09252 11.0033 7.07912 11.0096C7.06573 11.016 7.05391 11.0253 7.04453 11.0367C7.03515 11.0482 7.02844 11.0617 7.02489 11.0761C7.02134 11.0905 7.02103 11.1055 7.024 11.12L7.484 13.42C7.48861 13.4426 7.50088 13.4629 7.51874 13.4775C7.5366 13.492 7.55895 13.5 7.582 13.5H8.1395C8.15348 13.5 8.1673 13.4971 8.18007 13.4914C8.19284 13.4857 8.20429 13.4774 8.21366 13.4671C8.22304 13.4567 8.23014 13.4445 8.2345 13.4312C8.23886 13.4179 8.2404 13.4039 8.239 13.39L8.009 11.09C8.00652 11.0653 7.99497 11.0425 7.97658 11.0258C7.9582 11.0092 7.93429 11 7.9095 11H7.122V11ZM9.104 11C9.09052 11 9.07719 11.0027 9.06478 11.008C9.05238 11.0132 9.04118 11.021 9.03184 11.0307C9.0225 11.0404 9.01522 11.0519 9.01043 11.0645C9.00565 11.0771 9.00346 11.0905 9.004 11.104L9.096 13.404C9.09703 13.4298 9.10802 13.4542 9.12667 13.4721C9.14531 13.49 9.17016 13.5 9.196 13.5H9.804C9.82984 13.5 9.85469 13.49 9.87333 13.4721C9.89198 13.4542 9.90297 13.4298 9.904 13.404L9.996 11.104C9.99654 11.0905 9.99435 11.0771 9.98957 11.0645C9.98478 11.0519 9.9775 11.0404 9.96816 11.0307C9.95882 11.021 9.94762 11.0132 9.93522 11.008C9.92281 11.0027 9.90948 11 9.896 11H9.104V11ZM11.0905 11C11.0657 11 11.0418 11.0092 11.0234 11.0258C11.005 11.0425 10.9935 11.0653 10.991 11.09L10.761 13.39C10.7596 13.4039 10.7611 13.4179 10.7655 13.4312C10.7699 13.4445 10.777 13.4567 10.7863 13.4671C10.7957 13.4774 10.8072 13.4857 10.8199 13.4914C10.8327 13.4971 10.8465 13.5 10.8605 13.5H11.418C11.4411 13.5 11.4634 13.492 11.4813 13.4775C11.4991 13.4629 11.5114 13.4426 11.516 13.42L11.976 11.12C11.979 11.1055 11.9787 11.0905 11.9751 11.0761C11.9716 11.0617 11.9649 11.0482 11.9555 11.0367C11.9461 11.0253 11.9343 11.016 11.9209 11.0096C11.9075 11.0033 11.8928 11 11.878 11H11.0905ZM4.5 8H14.5C14.6326 8 14.7598 8.05268 14.8536 8.14645C14.9473 8.24021 15 8.36739 15 8.5V8.58C15 8.69821 14.9581 8.81259 14.8818 8.90284C14.8054 8.99309 14.6996 9.05338 14.583 9.073C12.8885 9.358 11.1945 9.5 9.5 9.5C7.8055 9.5 6.1115 9.3575 4.417 9.073C4.30043 9.05338 4.19459 8.99309 4.11825 8.90284C4.04191 8.81259 4.00001 8.69821 4 8.58V8.5C4 8.36739 4.05268 8.24021 4.14645 8.14645C4.24021 8.05268 4.36739 8 4.5 8V8Z" fill="white"/>
</svg>
