<svg width="18" height="18" viewBox="0 0 18 18" fill="none" xmlns="http://www.w3.org/2000/svg">
<rect width="18" height="18" rx="3" fill="#559DE6"/>
<path d="M13.8367 5.02544C12.6096 4.89567 11.5444 5.25973 10.4775 6.17741C9.44849 7.16816 8.54789 8.28707 7.80083 9.50343C7.75923 9.57104 7.69892 9.61797 7.63515 9.63233C7.56209 9.6488 7.48928 9.63357 7.43022 9.58924C7.37152 9.54516 7.33524 9.47817 7.33078 9.4061C7.32533 9.31125 7.32174 9.21652 7.31989 9.12154C7.31469 8.87017 7.10628 8.66561 6.85516 8.66561H4.79244C4.59691 8.66561 4.42145 8.78746 4.3557 8.96899C4.22023 9.34406 4.11336 9.73561 4.03808 10.1328C3.93109 10.6995 4.05133 11.2739 4.3765 11.75C4.70167 12.2263 5.1929 12.5474 5.75966 12.6544C5.89091 12.6791 6.02316 12.6913 6.15479 12.6913C6.7608 12.6913 7.35295 12.4346 7.76468 11.9773C8.0293 11.6829 8.59259 10.8499 9.18894 9.96791C9.78443 9.08737 10.4001 8.17674 10.7556 7.74619C11.5032 6.83964 12.7383 5.90747 13.8127 5.86834C14.0399 5.86004 14.218 5.67492 14.218 5.44695C14.218 5.22988 14.0541 5.04872 13.8367 5.02544ZM13.8007 5.53896C12.6241 5.58168 11.2958 6.57304 10.5013 7.5363C10.1359 7.97911 9.5156 8.8963 8.9159 9.78328C8.32599 10.6555 7.76889 11.4795 7.51962 11.7567C7.09489 12.2284 6.44368 12.4477 5.82083 12.3304C5.3405 12.2398 4.92431 11.9676 4.6488 11.5642C4.37328 11.1607 4.27137 10.6741 4.36201 10.1941C4.43395 9.81411 4.53624 9.43966 4.66576 9.08105C4.68433 9.02979 4.73523 8.99524 4.79244 8.99524H6.85516C6.92946 8.99524 6.98877 9.05369 6.99026 9.12811C6.99211 9.22692 6.99595 9.32586 7.00165 9.42579C7.0123 9.59519 7.09638 9.75096 7.23234 9.853C7.36793 9.95453 7.54141 9.99119 7.70747 9.95404C7.85755 9.92023 7.99388 9.81882 8.08168 9.67592C8.81424 8.48346 9.69726 7.38622 10.6993 6.42111C11.6858 5.57289 12.6721 5.23372 13.8019 5.35334C13.8512 5.35854 13.8883 5.39878 13.8883 5.44695C13.8883 5.49673 13.8497 5.5371 13.8007 5.53896Z" fill="white" stroke="white" stroke-width="0.25"/>
<path d="M5.62936 8.00433C5.66044 8.05448 5.71394 8.08184 5.76892 8.08184C5.79826 8.08184 5.8281 8.07404 5.85498 8.05757C5.93237 8.0104 5.95676 7.90911 5.91008 7.83146C5.90488 7.82267 5.78266 7.61539 5.90017 7.46246C6.10585 7.19462 6.00233 6.87267 5.90872 6.72469C5.86042 6.64817 5.75963 6.62575 5.68261 6.67343C5.60571 6.72122 5.58218 6.82276 5.62949 6.90003C5.63469 6.90845 5.75542 7.10967 5.63865 7.26161C5.43347 7.52871 5.53624 7.85413 5.62936 8.00433Z" fill="white" stroke="white" stroke-width="0.25"/>
</svg>
