<svg width="16" height="16" viewBox="0 0 16 16" fill="none" xmlns="http://www.w3.org/2000/svg">
<rect width="16" height="16" rx="8" fill="#559DE6"/>
<path d="M12.8367 4.02544C11.6096 3.89567 10.5444 4.25973 9.4775 5.17741C8.44849 6.16816 7.54789 7.28707 6.80083 8.50343C6.75923 8.57104 6.69892 8.61797 6.63515 8.63233C6.56209 8.6488 6.48928 8.63357 6.43022 8.58924C6.37152 8.54516 6.33524 8.47817 6.33078 8.4061C6.32533 8.31125 6.32174 8.21652 6.31989 8.12154C6.31469 7.87017 6.10628 7.66561 5.85516 7.66561H3.79244C3.59691 7.66561 3.42145 7.78746 3.3557 7.96899C3.22023 8.34406 3.11336 8.73561 3.03808 9.13285C2.93109 9.69948 3.05133 10.2739 3.3765 10.75C3.70167 11.2263 4.1929 11.5474 4.75966 11.6544C4.89091 11.6791 5.02316 11.6913 5.15479 11.6913C5.7608 11.6913 6.35295 11.4346 6.76468 10.9773C7.0293 10.6829 7.59259 9.84993 8.18894 8.96791C8.78443 8.08737 9.4001 7.17674 9.75561 6.74619C10.5032 5.83964 11.7383 4.90747 12.8127 4.86834C13.0399 4.86004 13.218 4.67492 13.218 4.44695C13.218 4.22988 13.0541 4.04872 12.8367 4.02544ZM12.8007 4.53896C11.6241 4.58168 10.2958 5.57304 9.50127 6.5363C9.13586 6.97911 8.5156 7.8963 7.9159 8.78328C7.32599 9.65552 6.76889 10.4795 6.51962 10.7567C6.09489 11.2284 5.44368 11.4477 4.82083 11.3304C4.3405 11.2398 3.92431 10.9676 3.6488 10.5642C3.37328 10.1607 3.27137 9.6741 3.36201 9.19414C3.43395 8.81411 3.53624 8.43966 3.66576 8.08105C3.68433 8.02979 3.73523 7.99524 3.79244 7.99524H5.85516C5.92946 7.99524 5.98877 8.05369 5.99026 8.12811C5.99211 8.22692 5.99595 8.32586 6.00165 8.42579C6.0123 8.59519 6.09638 8.75096 6.23234 8.853C6.36793 8.95453 6.54141 8.99119 6.70747 8.95404C6.85755 8.92023 6.99388 8.81882 7.08168 8.67592C7.81424 7.48346 8.69726 6.38622 9.69927 5.42111C10.6858 4.57289 11.6721 4.23372 12.8019 4.35334C12.8512 4.35854 12.8883 4.39878 12.8883 4.44695C12.8883 4.49673 12.8497 4.5371 12.8007 4.53896Z" fill="white" stroke="white" stroke-width="0.25"/>
<path d="M4.62936 7.00433C4.66044 7.05448 4.71394 7.08184 4.76892 7.08184C4.79826 7.08184 4.8281 7.07404 4.85498 7.05757C4.93237 7.0104 4.95676 6.90911 4.91008 6.83146C4.90488 6.82267 4.78266 6.61539 4.90017 6.46246C5.10585 6.19462 5.00233 5.87267 4.90872 5.72469C4.86042 5.64817 4.75963 5.62575 4.68261 5.67343C4.60571 5.72122 4.58218 5.82276 4.62949 5.90003C4.63469 5.90845 4.75542 6.10967 4.63865 6.26161C4.43347 6.52871 4.53624 6.85413 4.62936 7.00433Z" fill="white" stroke="white" stroke-width="0.25"/>
</svg>
