<svg width="16" height="16" viewBox="0 0 16 16" fill="none" xmlns="http://www.w3.org/2000/svg">
<path d="M8 16C3.58172 16 0 12.4183 0 8C0 3.58172 3.58172 0 8 0C12.4183 0 16 3.58172 16 8C16 12.4183 12.4183 16 8 16Z" fill="#3F78B0"/>
<path d="M10.6499 14.5H5.35004C5.15701 14.5 5 14.2495 5 13.9418V12.4429C5 12.1351 5.15701 11.8847 5.35004 11.8847H5.63336V10.9482C5.29315 10.8594 5.0324 10.3888 5.0324 9.82157V2.64288C5.0324 2.01265 5.35394 1.5 5.74915 1.5H10.2508C10.646 1.5 10.9675 2.01265 10.9675 2.64288V9.82157C10.9675 10.3888 10.7068 10.8594 10.3666 10.9482V11.8847H10.6499C10.843 11.8847 11 12.1351 11 12.4429V13.9418C11 14.2495 10.843 14.5 10.6499 14.5ZM10.7359 9.82157V2.64288C10.7359 2.21632 10.5183 1.8693 10.2508 1.8693H5.74915C5.48161 1.8693 5.26399 2.21632 5.26399 2.64288V9.82157C5.26399 10.2481 5.48161 10.5952 5.74915 10.5952H10.2508C10.5183 10.5952 10.7359 10.2481 10.7359 9.82157ZM5.86495 10.9644V11.8847H10.135V10.9644H5.86495ZM10.7684 12.4429C10.7684 12.3388 10.7152 12.254 10.6499 12.254H5.35004C5.28474 12.254 5.23159 12.3388 5.23159 12.4429V13.9418C5.23159 14.0459 5.28474 14.1307 5.35004 14.1307H10.6499C10.7152 14.1307 10.7684 14.0459 10.7684 13.9418V12.4429Z" fill="white"/>
<rect x="5" y="12" width="6" height="2.5" rx="0.5" fill="white"/>
<rect x="5.375" y="1.875" width="5.25" height="8.6" rx="0.375" fill="white" fill-opacity="0.25" stroke="white" stroke-width="0.25"/>
</svg>
