<svg width="18" height="18" viewBox="0 0 18 18" fill="none" xmlns="http://www.w3.org/2000/svg">
<rect width="18" height="18" rx="3" fill="#3F78B0"/>
<path d="M11.6499 15.5H6.35004C6.15701 15.5 6 15.2495 6 14.9418V13.4429C6 13.1351 6.15701 12.8847 6.35004 12.8847H6.63336V11.9482C6.29315 11.8594 6.0324 11.3888 6.0324 10.8216V3.64288C6.0324 3.01265 6.35394 2.5 6.74915 2.5H11.2508C11.646 2.5 11.9675 3.01265 11.9675 3.64288V10.8216C11.9675 11.3888 11.7068 11.8594 11.3666 11.9482V12.8847H11.6499C11.843 12.8847 12 13.1351 12 13.4429V14.9418C12 15.2495 11.843 15.5 11.6499 15.5ZM11.7359 10.8216V3.64288C11.7359 3.21632 11.5183 2.8693 11.2508 2.8693H6.74915C6.48161 2.8693 6.26399 3.21632 6.26399 3.64288V10.8216C6.26399 11.2481 6.48161 11.5952 6.74915 11.5952H11.2508C11.5183 11.5952 11.7359 11.2481 11.7359 10.8216ZM6.86495 11.9644V12.8847H11.135V11.9644H6.86495ZM11.7684 13.4429C11.7684 13.3388 11.7152 13.254 11.6499 13.254H6.35004C6.28474 13.254 6.23159 13.3388 6.23159 13.4429V14.9418C6.23159 15.0459 6.28474 15.1307 6.35004 15.1307H11.6499C11.7152 15.1307 11.7684 15.0459 11.7684 14.9418V13.4429Z" fill="white"/>
<rect x="6" y="13" width="6" height="2.5" rx="0.5" fill="white"/>
<rect x="6.375" y="2.875" width="5.25" height="8.6" rx="0.375" fill="white" fill-opacity="0.25" stroke="white" stroke-width="0.25"/>
</svg>
