<svg width="16" height="16" viewBox="0 0 16 16" fill="none" xmlns="http://www.w3.org/2000/svg">
<circle cx="8" cy="8" r="8" fill="#333"/>
<path d="M5.75001 4.99999C6.3025 4.99999 6.75001 4.5525 6.75001 3.99998C6.74999 3.44749 6.3025 3 5.75001 3C5.19751 3 4.75 3.44749 4.75 4.00001C4.75 4.5525 5.19749 4.99999 5.75001 4.99999Z" fill="white"/>
<path d="M10.25 4.99999C10.8025 4.99999 11.25 4.5525 11.25 3.99998C11.25 3.44749 10.8025 3 10.25 3C9.69749 3 9.25 3.44749 9.25 4.00001C9.25 4.5525 9.69749 4.99999 10.25 4.99999Z" fill="white"/>
<path d="M6.5 5.5H5.00001C4.45 5.5 4 5.95 4 6.49998V9.24997H4.75V13H6.74999V9.24997H7.49998V6.49998C7.49998 5.95 7.04999 5.5 6.5 5.5Z" fill="white"/>
<path d="M11.2275 6.18501C11.0925 5.77502 10.71 5.5 10.28 5.5H10.2225C9.79249 5.5 9.40999 5.77499 9.27499 6.18501L8 9.99999H9.49999V13H11V9.99999H12.5L11.2275 6.18501Z" fill="white"/>
</svg>
