<svg width="18" height="18" viewBox="0 0 18 18" fill="none" xmlns="http://www.w3.org/2000/svg">
<rect width="18" height="18" rx="3" fill="#333"/>
<path d="M6.75001 5.99999C7.3025 5.99999 7.75001 5.5525 7.75001 4.99998C7.74999 4.44749 7.3025 4 6.75001 4C6.19751 4 5.75 4.44749 5.75 5.00001C5.75 5.5525 6.19749 5.99999 6.75001 5.99999Z" fill="white"/>
<path d="M11.25 5.99999C11.8025 5.99999 12.25 5.5525 12.25 4.99998C12.25 4.44749 11.8025 4 11.25 4C10.6975 4 10.25 4.44749 10.25 5.00001C10.25 5.5525 10.6975 5.99999 11.25 5.99999Z" fill="white"/>
<path d="M7.5 6.5H6.00001C5.45 6.5 5 6.95 5 7.49998V10.25H5.75V14H7.74999V10.25H8.49998V7.49998C8.49998 6.95 8.04999 6.5 7.5 6.5Z" fill="white"/>
<path d="M12.2275 7.18501C12.0925 6.77502 11.71 6.5 11.28 6.5H11.2225C10.7925 6.5 10.41 6.77499 10.275 7.18501L9 11H10.5V14H12V11H13.5L12.2275 7.18501Z" fill="white"/>
</svg>
